<?xml version="1.0" encoding="UTF-8"?>
<svg width="32px" height="32px" viewBox="0 0 32 32" version="1.1" xmlns="http://www.w3.org/2000/svg" xmlns:xlink="http://www.w3.org/1999/xlink">
    <!-- Generator: Sketch 44 (41411) - http://www.bohemiancoding.com/sketch -->
    <title>ico_favoritos</title>
    <desc>Created with Sketch.</desc>
    <defs></defs>
    <g id="PERFIL" stroke="none" stroke-width="1" fill="none" fill-rule="evenodd">
        <g id="Mi_perfil_AUXILIAR_imgperfil_hover" transform="translate(-304.000000, -712.000000)" fill="#2D2D2D">
            <path d="M320.002931,736.564 C320.675931,736.564 321.348931,736.78 321.909931,737.21 L327.842931,741.752 C328.466931,742.23 329.038931,741.888 329.199931,741.772 C329.555931,741.514 329.855931,741.008 329.629931,740.364 L327.189931,733.747 C326.711931,732.384 327.159931,730.912 328.296931,730.067 L333.510931,726.196 C334.031931,725.808 334.071931,725.229 333.935931,724.816 C333.871931,724.625 333.605931,724 332.833931,724 L325.966931,724 C324.558931,724 323.306931,723.04 322.921931,721.666 L321.119931,714.867 C320.891931,714.062 320.207931,714 320.002931,714 C319.797931,714 319.109931,714.063 318.883931,714.873 L317.086931,721.652 C316.698931,723.04 315.446931,724 314.038931,724 L307.171931,724 C306.399931,724 306.133931,724.625 306.069931,724.816 C305.933931,725.229 305.973931,725.808 306.494931,726.196 L311.708931,730.067 C312.845931,730.912 313.293931,732.384 312.821931,733.731 L310.369931,740.379 C310.149931,741.008 310.449931,741.514 310.805931,741.772 C310.965931,741.888 311.538931,742.23 312.162931,741.752 L318.095931,737.21 C318.656931,736.78 319.329931,736.564 320.002931,736.564 M328.533931,744.001 C327.867931,744.001 327.202931,743.781 326.627931,743.34 L320.693931,738.797 C320.279931,738.481 319.725931,738.481 319.311931,738.797 L313.377931,743.34 C312.249931,744.204 310.779931,744.222 309.631931,743.391 C308.470931,742.549 308.010931,741.068 308.487931,739.704 L310.939931,733.055 C311.111931,732.562 310.939931,731.988 310.516931,731.672 L305.302931,727.801 C304.168931,726.959 303.723931,725.541 304.171931,724.188 C304.610931,722.859 305.788931,722 307.171931,722 L314.038931,722 C314.553931,722 315.013931,721.64 315.157931,721.126 L316.953931,714.347 C317.348931,712.938 318.571931,712 320.002931,712 C321.433931,712 322.656931,712.938 323.047931,714.334 C323.048931,714.338 323.049931,714.342 323.051931,714.347 L324.851931,721.14 C324.991931,721.64 325.451931,722 325.966931,722 L332.833931,722 C334.216931,722 335.394931,722.859 335.833931,724.188 C336.281931,725.541 335.836931,726.959 334.702931,727.801 L329.488931,731.672 C329.065931,731.988 328.893931,732.562 329.070931,733.071 L331.511931,739.688 C331.994931,741.068 331.534931,742.549 330.373931,743.391 C329.811931,743.798 329.171931,744.001 328.533931,744.001" id="ico_favoritos"></path>
        </g>
    </g>
</svg>