<?xml version="1.0" encoding="UTF-8"?>
<svg width="32px" height="32px" viewBox="0 0 32 32" version="1.1" xmlns="http://www.w3.org/2000/svg" xmlns:xlink="http://www.w3.org/1999/xlink">
    <!-- Generator: Sketch 44.1 (41455) - http://www.bohemiancoding.com/sketch -->
    <title>ico_diploma</title>
    <desc>Created with Sketch.</desc>
    <defs></defs>
    <g id="PERFIL" stroke="none" stroke-width="1" fill="none" fill-rule="evenodd">
        <g id="PERFIL_colegio-OK-Copy-6" transform="translate(-254.000000, -712.000000)" fill="#2D2D2D">
            <path d="M276.316,741.052 C276.11,740.983 275.89,740.983 275.684,741.052 L274,741.612 L274,737.65 C274.627,737.873 275.298,738 276,738 C276.702,738 277.373,737.873 278,737.65 L278,741.612 L276.316,741.052 Z M272,732 C272,729.794 273.794,728 276,728 C278.206,728 280,729.794 280,732 C280,734.206 278.206,736 276,736 C273.794,736 272,734.206 272,732 Z M257,712 L283,712 C284.654,712 286,713.346 286,715 L286,736 C286,737.654 284.654,739 283,739 L280,739 L280,743 C280,743.321 279.846,743.623 279.584,743.812 C279.412,743.936 279.207,744 279,744 C278.894,744 278.787,743.983 278.684,743.948 L276,743.054 L273.316,743.948 C273.011,744.051 272.676,743.998 272.416,743.812 C272.154,743.623 272,743.321 272,743 L272,739 L257,739 C255.346,739 254,737.654 254,736 L254,715 C254,713.346 255.346,712 257,712 Z M284,736 L284,715 C284,714.448 283.551,714 283,714 L257,714 C256.449,714 256,714.448 256,715 L256,736 C256,736.552 256.449,737 257,737 L272,737 L272,736.459 C270.776,735.36 270,733.771 270,732 C270,728.691 272.691,726 276,726 C279.309,726 282,728.691 282,732 C282,733.771 281.224,735.36 280,736.459 L280,737 L283,737 C283.551,737 284,736.552 284,736 Z M270,720 L261,720 C260.448,720 260,719.553 260,719 C260,718.447 260.448,718 261,718 L270,718 C270.552,718 271,718.447 271,719 C271,719.553 270.552,720 270,720 Z M261,722 L279,722 C279.552,722 280,722.447 280,723 C280,723.553 279.552,724 279,724 L261,724 C260.448,724 260,723.553 260,723 C260,722.447 260.448,722 261,722 Z M261,726 L266,726 C266.552,726 267,726.447 267,727 C267,727.553 266.552,728 266,728 L261,728 C260.448,728 260,727.553 260,727 C260,726.447 260.448,726 261,726 Z" id="ico_diploma"></path>
        </g>
    </g>
</svg>