<?xml version="1.0" encoding="utf-8"?>
<svg width="32" height="32" viewBox="76.6054 66.4451 32 32" xmlns="http://www.w3.org/2000/svg">
  <g transform="matrix(1.0000000000000002, 0, 0, 1.0000000000000002, -678.3945922851562, -2331.554931640625)" id="Ico_home_contacta">
    <g transform="translate(647.000000, 2373.000000)">
      <g id="Page-1" transform="translate(108.000000, 25.000000)" fill="#61CFFF">
        <path d="M21,32 L1,32 C0.448,32 0,31.552 0,31 L0,11 C0,10.448 0.448,10 1,10 L21,10 C21.552,10 22,10.448 22,11 L22,17 C22,17.552 21.552,18 21,18 C20.448,18 20,17.552 20,17 L20,12 L2,12 L2,30 L20,30 L20,25 C20,24.448 20.448,24 21,24 C21.552,24 22,24.448 22,25 L22,31 C22,31.552 21.552,32 21,32 Z M31,22 L11,22 C10.448,22 10,21.552 10,21 L10,15 C10,14.448 10.448,14 11,14 C11.552,14 12,14.448 12,15 L12,20 L30,20 L30,2 L12,2 L12,7 C12,7.552 11.552,8 11,8 C10.448,8 10,7.552 10,7 L10,1 C10,0.448 10.448,0 11,0 L31,0 C31.552,0 32,0.448 32,1 L32,21 C32,21.552 31.552,22 31,22 Z" id="Combined-Shape"/>
      </g>
    </g>
  </g>
</svg>