<?xml version="1.0" encoding="utf-8"?>
<svg width="32" height="32" viewBox="86 57 32 32" xmlns="http://www.w3.org/2000/svg">
  <path d="M83.972,82.802 C83.985,82.866 83.981,82.933 83.981,83 C83.981,83.067 83.985,83.134 83.972,83.198 C83.969,83.213 83.974,83.228 83.97,83.243 C83.954,83.309 83.919,83.364 83.891,83.424 C83.874,83.459 83.865,83.497 83.844,83.53 C83.779,83.632 83.7,83.723 83.606,83.794 C83.591,83.806 83.572,83.81 83.557,83.82 C83.471,83.879 83.378,83.924 83.278,83.954 C83.265,83.957 83.256,83.967 83.243,83.97 C83.164,83.99 83.084,83.999 83.006,83.999 C83.004,83.999 83.003,84 83.001,84 L83,84 L82.999,84 L82.994,84 C82.916,84 82.836,83.991 82.757,83.971 L75.463,82.147 C73.174,83.355 70.605,84 68,84 C59.178,84 52,76.822 52,68 C52,59.178 59.178,52 68,52 C76.822,52 84,59.178 84,68 C84,70.605 83.356,73.174 82.147,75.464 L83.97,82.757 C83.974,82.772 83.969,82.787 83.972,82.802 Z M54,68 C54,75.72 60.28,82 68,82 C70.401,82 72.77,81.382 74.85,80.213 L74.853,80.218 C75.067,80.098 75.325,80.051 75.582,80.115 L81.625,81.625 L80.115,75.582 C80.05,75.324 80.097,75.066 80.218,74.852 L80.213,74.849 C81.382,72.77 82,70.401 82,68 C82,60.28 75.72,54 68,54 C60.28,54 54,60.28 54,68 Z M68,61 C70.206,61 72,62.794 72,65 C72,66.893 71.01,67.888 70.215,68.687 C69.51,69.396 69,69.909 69,71 C69,71.552 68.552,72 68,72 C67.448,72 67,71.552 67,71 C67,69.083 67.997,68.082 68.797,67.277 C69.496,66.575 70,66.068 70,65 C70,63.897 69.103,63 68,63 C66.897,63 66,63.897 66,65 C66,65.552 65.552,66 65,66 C64.448,66 64,65.552 64,65 C64,62.794 65.794,61 68,61 Z M68,73 C68.552,73 69,73.448 69,74 C69,74.552 68.552,75 68,75 C67.448,75 67,74.552 67,74 C67,73.448 67.448,73 68,73 Z" id="icon_FAQ" fill="#61CFFF" transform="matrix(1, 0, 0, 1, 34, 5.000000000000001)"/>
</svg>