<?xml version="1.0" encoding="utf-8"?>
<svg width="33.416595458984375" height="32.00040054321289" viewBox="107.291 6 33.4166 32.0004" xmlns="http://www.w3.org/2000/svg">
  <g id="HOME" stroke="none" stroke-width="1" fill="none" fill-rule="evenodd" transform="matrix(1, 0, 0, 1, 0, -1.7763568394002505e-15)">
    <g transform="translate(-1047.000000, -2391.000000)" id="Ico_home_colabora">
      <g transform="translate(1047.000000, 2373.000000)">
        <g id="Page-1" transform="translate(108.000000, 24.000000)" fill="#61CFFF">
          <path d="M15.9982,2 C17.6522,2 18.9982,3.346 18.9982,5 C18.9982,6.654 17.6522,8 15.9982,8 C14.3442,8 12.9982,6.654 12.9982,5 C12.9982,3.346 14.3442,2 15.9982,2 M15.9982,10 C13.2412,10 10.9982,7.757 10.9982,5 C10.9982,2.243 13.2412,0 15.9982,0 C18.7552,0 20.9982,2.243 20.9982,5 C20.9982,7.757 18.7552,10 15.9982,10 Z M9.3292,21.4997 C9.9972,22.6567 10.1742,24.0037 9.8282,25.2937 C9.4822,26.5837 8.6552,27.6617 7.4992,28.3297 C6.7282,28.7747 5.8732,29.0017 5.0072,29.0017 C4.5732,29.0017 4.1362,28.9457 3.7052,28.8287 C2.4152,28.4837 1.3372,27.6567 0.6692,26.4997 C-0.7088,24.1137 0.1112,21.0487 2.4992,19.6697 C4.8872,18.2917 7.9502,19.1137 9.3292,21.4997 Z M6.4992,26.5977 C7.9322,25.7707 8.4242,23.9327 7.5972,22.4997 C6.7702,21.0687 4.9312,20.5757 3.4992,21.4027 C2.0662,22.2297 1.5742,24.0677 2.4012,25.4997 C3.2282,26.9337 5.0672,27.4267 6.4992,26.5977 Z M2.9601,18.0176 C2.4091,17.9766 1.9961,17.4966 2.0371,16.9466 C2.3591,12.6156 4.7351,8.6146 8.3921,6.2456 C8.8561,5.9436 9.4751,6.0786 9.7741,6.5396 C10.0751,7.0036 9.9431,7.6226 9.4801,7.9226 C6.3451,9.9546 4.3081,13.3836 4.0311,17.0946 C3.9921,17.6206 3.5541,18.0206 3.0351,18.0206 C3.0111,18.0206 2.9851,18.0196 2.9601,18.0176 Z M29.4988,19.67 C31.8868,21.049 32.7078,24.112 31.3298,26.5 C30.6618,27.656 29.5838,28.483 28.2928,28.829 C27.8628,28.945 27.4258,29.002 26.9918,29.002 C26.1248,29.002 25.2698,28.774 24.4988,28.33 C23.3428,27.662 22.5158,26.584 22.1698,25.294 C21.8248,24.004 22.0008,22.656 22.6688,21.5 C23.3368,20.344 24.4148,19.517 25.7048,19.171 C26.9958,18.822 28.3438,19.003 29.4988,19.67 Z M29.5978,25.5 C30.4248,24.067 29.9318,22.229 28.4988,21.402 C28.0288,21.13 27.5128,21.001 27.0038,21.001 C25.9668,21.001 24.9558,21.539 24.4018,22.5 C23.5748,23.933 24.0668,25.771 25.4988,26.598 C26.9338,27.426 28.7718,26.932 29.5978,25.5 Z M21.5353,28.6494 C22.0253,28.3924 22.6283,28.5844 22.8843,29.0744 C23.1393,29.5634 22.9493,30.1684 22.4593,30.4224 C20.4793,31.4554 18.2453,32.0004 15.9983,32.0004 C13.7523,32.0004 11.5183,31.4554 9.5393,30.4234 C9.0493,30.1694 8.8593,29.5644 9.1143,29.0754 C9.3683,28.5854 9.9713,28.3934 10.4633,28.6504 C12.1583,29.5334 14.0723,30.0004 15.9983,30.0004 C17.9523,30.0004 19.8153,29.5454 21.5353,28.6494 Z M22.3966,7.8467 C21.9296,7.5517 21.7906,6.9337 22.0846,6.4667 C22.3806,6.0007 22.9976,5.8617 23.4646,6.1557 C27.2046,8.5167 29.6316,12.5507 29.9586,16.9467 C30.0006,17.4967 29.5866,17.9767 29.0366,18.0177 C29.0106,18.0197 28.9856,18.0207 28.9606,18.0207 C28.4426,18.0207 28.0036,17.6197 27.9646,17.0947 C27.6846,13.3277 25.6026,9.8707 22.3966,7.8467 Z" id="Combined-Shape"/>
        </g>
      </g>
    </g>
  </g>
</svg>