<svg width="73" height="72" viewBox="0 0 73 72" xmlns="http://www.w3.org/2000/svg"><title>8D64D765-3390-4FEA-A8B1-B02A078CBCDE</title><g fill="none" fill-rule="evenodd"><path d="M72.075 25.967c-.192 0-.744-.062-.924 0H13.848c-.62-.038-1.357.025-1.663-.398a.984.984 0 0 1 .185-1.344L41.945 1.192a.897.897 0 0 1 1.11 0L72.63 24.225c.41.319.492.92.184 1.344a.922.922 0 0 1-.739.398" fill="#FF686F"/><path d="M71.5 69.992a1 1 0 1 1 0 2h-70a1 1 0 1 1 0-2h70zm-67-5a1 1 0 0 1 1-1h62a1 1 0 1 1 0 2h-62a1 1 0 0 1-1-1zm4-6a1 1 0 0 1 1-1h54a1 1 0 1 1 0 2h-54a1 1 0 0 1-1-1zm-4.978-33.88C3.52 25.073 3.5 25.04 3.5 25c0-.024.012-.044.014-.067a.95.95 0 0 1 .041-.203.864.864 0 0 1 .06-.174c.027-.055.064-.1.102-.15a.969.969 0 0 1 .138-.155c.018-.017.027-.038.045-.052l32-24a1.002 1.002 0 0 1 1.2 0l32 24c.018.014.027.035.045.051a.969.969 0 0 1 .138.155c.038.05.075.096.102.151a.851.851 0 0 1 .06.174c.02.067.036.133.041.203.002.023.014.043.014.067 0 .04-.018.073-.022.111a1.042 1.042 0 0 1-.04.2 1.083 1.083 0 0 1-.088.186c-.02.032-.026.07-.05.102-.013.017-.033.023-.046.04a.958.958 0 0 1-.243.2c-.033.02-.06.049-.096.065A.995.995 0 0 1 68.5 26h-64c-.024 0-.045-.012-.068-.015a.98.98 0 0 1-.2-.04c-.06-.017-.12-.032-.175-.06-.055-.027-.102-.065-.15-.103a.962.962 0 0 1-.156-.137c-.015-.017-.036-.026-.05-.046-.025-.032-.03-.07-.05-.104a.97.97 0 0 1-.088-.184.973.973 0 0 1-.04-.2zM36.5 2.25L7.5 24H65.5l-29-21.75zm-22 48.742a1 1 0 1 1-2 0v-18a1 1 0 1 1 2 0v18zm46 0a1 1 0 1 1-2 0v-18a1 1 0 1 1 2 0v18zm-23 0a1 1 0 1 1-2 0v-18a1 1 0 1 1 2 0v18zm-1-31.02c-2.757 0-5-2.243-5-5s2.243-5 5-5 5 2.243 5 5-2.243 5-5 5zm0-8c-1.654 0-3 1.346-3 3s1.346 3 3 3 3-1.346 3-3-1.346-3-3-3z" fill="#2D2D2D"/></g></svg>