<svg width="77" height="63" viewBox="0 0 77 63" xmlns="http://www.w3.org/2000/svg"><title>D9615F28-0181-498B-80D0-FB29F5D3C204</title><g fill="none" fill-rule="evenodd"><path fill="#70F1C8" d="M8 25l34.5 24L77 25 42.5 1.001z"/><path d="M53.519 35.775l-16.954-11.6a1 1 0 1 0-1.129 1.65L51.75 36.987 36 47.787 2.769 25 36 2.212 69.232 25 53.519 35.775zm18.047-11.6l-35-24a1.002 1.002 0 0 0-1.131 0l-35 24a1.003 1.003 0 0 0 0 1.65L13 34.44V47c0 8.822 10.318 16 23 16a1 1 0 1 0 0-2c-11.579 0-21-6.28-21-14V35.813l20.435 14.012c.17.117.368.175.565.175.198 0 .427-.058.597-.175L52 39.284V47a1 1 0 0 0 2 0v-9.087l-.007-.016a.921.921 0 0 0 .24-.176l17.341-11.896a.996.996 0 0 0 .43-.825c0-.33-.166-.638-.438-.825z" fill="#2D2D2D"/></g></svg>