<?xml version="1.0" encoding="utf-8"?>
<svg width="32" height="32" viewBox="86 57 32 32" xmlns="http://www.w3.org/2000/svg">
  <path d="M81,52 C82.654,52 84,53.346 84,55 L84,81 C84,82.654 82.654,84 81,84 L57,84 C54.243,84 52,81.757 52,79 L52,63 C52,61.346 53.346,60 55,60 L56,60 L56,55 C56,53.346 57.346,52 59,52 L81,52 Z M82,81 L82,55 C82,54.448 81.552,54 81,54 L59,54 C58.448,54 58,54.448 58,55 L58,79 C58,79.553 57.553,80 57,80 C56.447,80 56,79.553 56,79 L56,62 L55,62 C54.448,62 54,62.448 54,63 L54,79 C54,80.654 55.346,82 57,82 L81,82 C81.552,82 82,81.552 82,81 Z M67,74 C67.553,74 68,74.447 68,75 C68,75.553 67.553,76 67,76 L61,76 C60.447,76 60,75.553 60,75 C60,74.447 60.447,74 61,74 L67,74 Z M67,70 C67.553,70 68,70.447 68,71 C68,71.553 67.553,72 67,72 L61,72 C60.447,72 60,71.553 60,71 C60,70.447 60.447,70 61,70 L67,70 Z M67,78 C67.553,78 68,78.447 68,79 C68,79.553 67.553,80 67,80 L61,80 C60.447,80 60,79.553 60,79 C60,78.447 60.447,78 61,78 L67,78 Z M79,70 C79.553,70 80,70.447 80,71 L80,75 C80,75.553 79.553,76 79,76 L73,76 C72.447,76 72,75.553 72,75 L72,71 C72,70.447 72.447,70 73,70 L79,70 Z M79,78 C79.553,78 80,78.447 80,79 C80,79.553 79.553,80 79,80 L73,80 C72.447,80 72,79.553 72,79 C72,78.447 72.447,78 73,78 L79,78 Z M79,56 C79.553,56 80,56.447 80,57 C80,57.553 79.553,58 79,58 L61,58 C60.447,58 60,57.553 60,57 C60,56.447 60.447,56 61,56 L79,56 Z M79,60 C79.553,60 80,60.447 80,61 L80,67 C80,67.553 79.553,68 79,68 L61,68 C60.447,68 60,67.553 60,67 L60,61 C60,60.447 60.447,60 61,60 L79,60 Z" id="icon_newsletter" fill="#61CFFF" transform="matrix(1, 0, 0, 1, 34, 5.000000000000001)"/>
</svg>