<svg width="32" height="32" xmlns="http://www.w3.org/2000/svg">
 <!-- Generator: Sketch 42 (36781) - http://www.bohemiancoding.com/sketch -->
 <title>Ico_home_registrate</title>
 <desc>Created with Sketch.</desc>

 <g>
  <title>background</title>
  <rect fill="none" id="canvas_background" height="34" width="34" y="-1" x="-1"/>
 </g>
 <g>
  <title>Layer 1</title>
  <g fill-rule="evenodd" fill="none" id="HOME">
   <g id="Ico_home_registrate">
    <g id="svg_1">
     <g fill="#61CFFF" id="Page-1">
      <path id="Combined-Shape" d="m7,22c-0.553,0 -1,-0.447 -1,-1c0,-0.553 0.447,-1 1,-1l3,0c0.553,0 1,0.447 1,1c0,0.553 -0.447,1 -1,1l-3,0zm10,-5c0,0.553 -0.447,1 -1,1l-9,0c-0.553,0 -1,-0.447 -1,-1c0,-0.553 0.447,-1 1,-1l9,0c0.553,0 1,0.447 1,1zm-10,9c-0.553,0 -1,-0.447 -1,-1c0,-0.553 0.447,-1 1,-1l6,0c0.553,0 1,0.447 1,1c0,0.553 -0.447,1 -1,1l-6,0zm1,-14c-1.103,0 -2,-0.897 -2,-2l0,-2c0,-1.103 0.897,-2 2,-2l2,0c1.103,0 2,0.897 2,2l0,2c0,1.103 -0.897,2 -2,2l-2,0zm0,-4l0,2l2.002,0l-0.002,-2l-2,0zm23.0713,2.9287c1.069,1.07 1.149,2.747 0.263,3.921c-0.038,0.059 -0.066,0.124 -0.117,0.176l-7.958,7.959c-0.391,0.389 -1.024,0.389 -1.415,0c-0.39,-0.391 -0.39,-1.025 0,-1.415l7.813,-7.812c0.39,-0.391 0.39,-1.025 0,-1.415c-0.39,-0.39 -1.024,-0.39 -1.414,0l-7.813,7.813c-0.39,0.39 -1.024,0.39 -1.415,0c-0.39,-0.391 -0.389,-1.024 0,-1.415l7.959,-7.958c0.052,-0.051 0.117,-0.078 0.175,-0.116c1.175,-0.887 2.852,-0.807 3.922,0.262zm-8.0714,14.0709c0.553,0 1,0.448 1,1l0,3c0,1.655 -1.346,3 -3,3l-18,0c-1.654,0 -3,-1.345 -3,-3l0,-26c0,-1.654 1.346,-3 3,-3l12,0c4.542,0 9,4.458 9,9l0,2c0,0.553 -0.447,1 -1,1c-0.553,0 -1,-0.447 -1,-1l0,-2c0,-0.551 -0.448,-1 -1,-1l-2,0c-1.654,0 -3,-1.345 -3,-3l0,-2c0,-0.551 -0.448,-1 -1,-1l-12,0c-0.552,0 -1,0.449 -1,1l0,26c0,0.552 0.448,1 1,1l18,0c0.552,0 1,-0.448 1,-1l0,-3c0,-0.552 0.447,-1 1,-1zm-1.831,-18.983c-0.728,-1.314 -1.871,-2.458 -3.186,-3.186c0.003,0.058 0.017,0.112 0.017,0.169l0,2c0,0.552 0.448,1 1,1l2,0c0.058,0 0.111,0.014 0.169,0.017zm-4.4873,19.9805c-0.376,0.036 -0.715,-0.303 -0.679,-0.679l0.361,-3.753c0.045,-0.464 0.606,-0.628 0.956,-0.278l3.393,3.394c0.349,0.349 0.186,0.911 -0.278,0.956l-3.753,0.36z"/>
     </g>
    </g>
   </g>
  </g>
 </g>
</svg>