<svg width="54" height="48" viewBox="0 0 54 48" xmlns="http://www.w3.org/2000/svg"><title>A62F6676-B99B-417D-987C-421BD53A10FB</title><g fill="none" fill-rule="evenodd"><path d="M10.816 22h18c1.654 0 3 1.346 3 3v11c0 1.302-.838 3.401-2 3.815V25c0-.552-.449-1-1-1H8a2.997 2.997 0 0 1 2.816-2" fill="#2D2D2D"/><path d="M28 34.129A17.926 17.926 0 0 0 36 36c9.941 0 18-8.059 18-18S45.941 0 36 0 18 8.059 18 18c0 2.874.673 5.59 1.871 8H25c1.654 0 3 1.346 3 3v5.129z" fill="#FF6C7E"/><path d="M6.816 26H24.82c1.655 0 3.001 1.346 3.001 3v11c0 1.302-.838 3.401-2 3.815V29c0-.552-.45-1-1-1H4a2.997 2.997 0 0 1 2.816-2" fill="#2D2D2D"/><path d="M21 46H3c-.551 0-1-.448-1-1V33.233l9.373 7.546A.994.994 0 0 0 12 41a.994.994 0 0 0 .627-.221L22 33.233V45c0 .552-.449 1-1 1zm-.658-14L12 38.716 3.658 32h16.684zM21 30H3c-1.654 0-3 1.346-3 3v12c0 1.654 1.346 3 3 3h18c1.654 0 3-1.346 3-3V33c0-1.654-1.346-3-3-3z" fill="#2D2D2D"/></g></svg>