<?xml version="1.0" encoding="UTF-8" standalone="no"?>
<svg width="48px" height="42px" viewBox="0 0 48 42" version="1.1" xmlns="http://www.w3.org/2000/svg" xmlns:xlink="http://www.w3.org/1999/xlink">
    <!-- Generator: Sketch 42 (36781) - http://www.bohemiancoding.com/sketch -->
    <title>ico_home_auxiliares_monocromo</title>
    <desc>Created with Sketch.</desc>
    <defs></defs>
    <g id="Assets" stroke="none" stroke-width="1" fill="none" fill-rule="evenodd">
        <g id="assets" transform="translate(-408.000000, -989.000000)" fill="#2D2D2D">
            <path d="M442.871,1011.71675 L432.551,1004.89475 C432.091,1004.58975 431.47,1004.71675 431.166,1005.17775 C430.861,1005.63775 430.988,1006.25875 431.449,1006.56275 L441.046,1012.90675 L432,1018.80675 L410.83,1005.00075 L432,991.19475 L453.169,1005.00075 L442.871,1011.71675 Z M455.546,1004.16275 L432.546,989.16275 C432.214,988.94575 431.786,988.94575 431.454,989.16275 L408.454,1004.16275 C408.171,1004.34775 408,1004.66275 408,1005.00075 C408,1005.33875 408.171,1005.65375 408.454,1005.83775 L417,1011.41175 L417,1020.00075 C417,1026.16875 423.589,1031.00075 432,1031.00075 C432.552,1031.00075 433,1030.55275 433,1030.00075 C433,1029.44775 432.552,1029.00075 432,1029.00075 C424.831,1029.00075 419,1024.96275 419,1020.00075 L419,1012.71575 L431.454,1020.83775 C431.62,1020.94575 431.81,1021.00075 432,1021.00075 C432.19,1021.00075 432.38,1020.94575 432.546,1020.83775 L442,1014.67275 L442,1020.00075 C442,1020.55275 442.448,1021.00075 443,1021.00075 C443.552,1021.00075 444,1020.55275 444,1020.00075 L444,1013.36775 L455.546,1005.83775 C455.829,1005.65375 456,1005.33875 456,1005.00075 C456,1004.66275 455.829,1004.34775 455.546,1004.16275 L455.546,1004.16275 Z" id="ico_home_auxiliares_monocromo"></path>
        </g>
    </g>
</svg>