<?xml version="1.0" encoding="UTF-8" standalone="no"?>
<svg width="36px" height="32px" viewBox="0 0 36 32" version="1.1" xmlns="http://www.w3.org/2000/svg" xmlns:xlink="http://www.w3.org/1999/xlink">
    <!-- Generator: Sketch 42 (36781) - http://www.bohemiancoding.com/sketch -->
    <title>ico_auxiliar_peq</title>
    <desc>Created with Sketch.</desc>
    <defs></defs>
    <g id="BUSCADOR" stroke="none" stroke-width="1" fill="none" fill-rule="evenodd">
        <g id="assets" transform="translate(-127.000000, -706.000000)" fill="#2D2D2D">
            <path d="M153.762,723.8819 L145.284,718.0809 C145.056,717.9249 144.745,717.9839 144.589,718.2109 C144.434,718.4399 144.491,718.7499 144.72,718.9059 L152.877,724.4879 L145.002,729.8889 L128.385,718.4929 L145.002,707.0989 L161.619,718.4929 L153.762,723.8819 Z M162.786,718.0809 L145.284,706.0799 C145.115,705.9639 144.889,705.9639 144.719,706.0799 L127.217,718.0809 C127.081,718.1749 127,718.3289 127,718.4929 C127,718.6579 127.081,718.8129 127.217,718.9059 L133.501,723.2149 L133.501,729.4949 C133.501,733.9059 138.66,737.4959 145.002,737.4959 C145.279,737.4959 145.502,737.2719 145.502,736.9949 C145.502,736.7199 145.279,736.4949 145.002,736.4949 C139.212,736.4949 134.501,733.3559 134.501,729.4949 L134.501,723.9009 L144.719,730.9069 C144.804,730.9659 144.904,730.9949 145.002,730.9949 C145.101,730.9949 145.215,730.9659 145.3,730.9069 L153.002,725.6369 L153.002,729.4949 C153.002,729.7719 153.226,729.9949 153.502,729.9949 C153.78,729.9949 154.003,729.7719 154.003,729.4949 L154.003,724.9499 L153.999,724.9429 C154.045,724.9209 154.08,724.8919 154.118,724.8549 L162.79,718.9059 C162.926,718.8129 163.005,718.6579 163.005,718.4929 C163.005,718.3289 162.922,718.1749 162.786,718.0809 L162.786,718.0809 Z" id="ico_auxiliar_peq"></path>
        </g>
    </g>
</svg>