<?xml version="1.0" encoding="UTF-8"?>
<svg width="24px" height="12px" viewBox="0 0 24 12" version="1.1" xmlns="http://www.w3.org/2000/svg" xmlns:xlink="http://www.w3.org/1999/xlink">
    <!-- Generator: Sketch 44.1 (41455) - http://www.bohemiancoding.com/sketch -->
    <title>ico_flecha_paginado</title>
    <desc>Created with Sketch.</desc>
    <defs></defs>
    <g id="PERFIL" stroke="none" stroke-width="1" fill="none" fill-rule="evenodd">
        <g id="Mi_perfil_AUXILIAR_MENSAJES-Copy" transform="translate(-782.000000, -582.000000)" fill="#2D2D2D">
            <path d="M797.96875,587.003028 L797.96875,584.211314 C797.96875,582.011252 799.373431,581.341506 801.097767,582.708715 L804.643779,585.520313 C806.371887,586.890512 806.368115,589.115036 804.643779,590.482245 L801.097767,593.293842 C799.369659,594.664042 797.96875,593.991363 797.96875,591.791243 L797.96875,589.003028 L782.991673,589.003028 C782.443987,589.003028 782,588.559163 782,588.003028 C782,587.450743 782.444174,587.003028 782.991673,587.003028 L797.96875,587.003028 Z M799.96875,585.576011 L799.96875,590.453125 C799.96875,591.001888 800.326137,591.177884 800.766995,590.83837 L803.635465,588.629311 C804.083352,588.284385 804.076324,587.739338 803.635465,587.399825 L800.766995,585.190766 C800.319108,584.84584 799.96875,585.023733 799.96875,585.576011 Z" id="ico_flecha_paginado"></path>
        </g>
    </g>
</svg>