<?xml version="1.0" encoding="UTF-8"?>
<svg width="24px" height="24px" viewBox="0 0 24 24" version="1.1" xmlns="http://www.w3.org/2000/svg" xmlns:xlink="http://www.w3.org/1999/xlink">
    <!-- Generator: Sketch 44.1 (41455) - http://www.bohemiancoding.com/sketch -->
    <title>ico_estrella_on</title>
    <desc>Created with Sketch.</desc>
    <defs></defs>
    <g id="PERFIL" stroke="none" stroke-width="1" fill="none" fill-rule="evenodd">
        <g id="Mi_perfil_AUXILIAR_MENSAJES-Copy" transform="translate(-1154.000000, -784.000000)" fill="#FBE05F">
            <g id="Group-2-Copy" transform="translate(166.000000, 760.000000)">
                <path d="M1000.00147,24 C998.928472,24 998.010472,24.704 997.714472,25.761 L996.367472,30.845 C996.259472,31.229 995.914472,31.499 995.528472,31.499 L990.379472,31.499 C989.341472,31.499 988.458472,32.144 988.128472,33.141 C987.793472,34.155 988.126472,35.219 988.977472,35.851 L992.887472,38.754 C993.205472,38.99 993.334472,39.421 993.205472,39.791 L991.365472,44.776 C991.007472,45.8 991.353472,46.911 992.224472,47.542 C992.645472,47.848 993.125472,48 993.604472,48 C994.103472,48 994.601472,47.835 995.033472,47.504 L999.482472,44.097 C999.638472,43.979 999.819472,43.919 1000.00147,43.919 C1000.18347,43.919 1000.36447,43.979 1000.52047,44.097 L1004.96947,47.504 C1005.40147,47.835 1005.89947,48 1006.39847,48 C1006.87747,48 1007.35747,47.848 1007.77847,47.542 C1008.64947,46.911 1008.99547,45.8 1008.63247,44.765 L1006.80247,39.803 C1006.66847,39.421 1006.79747,38.99 1007.11547,38.754 L1011.02547,35.851 C1011.87647,35.219 1012.20947,34.155 1011.87447,33.141 C1011.54447,32.144 1010.66147,31.499 1009.62347,31.499 L1004.47447,31.499 C1004.08847,31.499 1003.74347,31.229 1003.63847,30.855 L1002.28847,25.761 C1002.28647,25.757 1002.28647,25.754 1002.28547,25.75 C1001.99247,24.704 1001.07447,24 1000.00147,24" id="ico_estrella_on"></path>
            </g>
        </g>
    </g>
</svg>