<?xml version="1.0" encoding="UTF-8" standalone="no"?>
<svg width="32px" height="24px" viewBox="0 0 32 24" version="1.1" xmlns="http://www.w3.org/2000/svg" xmlns:xlink="http://www.w3.org/1999/xlink">
    <!-- Generator: Sketch 42 (36781) - http://www.bohemiancoding.com/sketch -->
    <title>ico_enviar</title>
    <desc>Created with Sketch.</desc>
    <defs></defs>
    <g id="BUSCADOR" stroke="none" stroke-width="1" fill="none" fill-rule="evenodd">
        <g id="assets" transform="translate(-128.000000, -422.000000)" fill="#2D2D2D">
            <path d="M157,444 L131,444 C130.449,444 130,443.552 130,443 L130,425.164 L142.238,434.044 C142.765,434.427 143.382,434.617 144,434.617 C144.618,434.617 145.235,434.427 145.762,434.044 L158,425.164 L158,443 C158,443.552 157.551,444 157,444 L157,444 Z M156.198,424 L144.587,432.425 C144.236,432.681 143.765,432.681 143.413,432.425 L131.802,424 L156.198,424 Z M157,422 L131,422 C129.346,422 128,423.346 128,425 L128,443 C128,444.654 129.346,446 131,446 L157,446 C158.654,446 160,444.654 160,443 L160,425 C160,423.346 158.654,422 157,422 L157,422 Z" id="ico_enviar"></path>
        </g>
    </g>
</svg>