<?xml version="1.0" encoding="UTF-8" standalone="no"?>
<svg width="16px" height="24px" viewBox="0 0 16 24" version="1.1" xmlns="http://www.w3.org/2000/svg" xmlns:xlink="http://www.w3.org/1999/xlink">
    <!-- Generator: Sketch 42 (36781) - http://www.bohemiancoding.com/sketch -->
    <title>Ico_duracion_selected</title>
    <desc>Created with Sketch.</desc>
    <defs></defs>
    <g id="BUSCADOR" stroke="none" stroke-width="1" fill="none" fill-rule="evenodd">
        <g id="assets" transform="translate(-568.000000, -278.000000)" fill="#61CFFF">
            <path d="M576.876,289.973 C580.48,287.418 584.012,284.66 584.012,279.407 L584.003,279.407 C584.003,279.186 583.865,278.984 583.642,278.924 C583.502,278.886 580.172,278 576.012,278 C571.852,278 568.51,278.886 568.37,278.924 C568.147,278.984 568.009,279.186 568.009,279.407 L568,279.407 C568,284.661 571.535,287.419 575.142,289.973 C571.544,292.522 568.012,295.272 568.012,300.5 L568.02,300.5 C568.02,300.715 568.152,300.915 568.369,300.98 C568.509,301.021 571.845,302 576.012,302 C580.179,302 583.515,301.021 583.654,300.98 C583.871,300.915 584.004,300.715 584.004,300.5 L584.012,300.5 C584.012,295.272 580.478,292.522 576.876,289.973" id="Ico_duracion_selected"></path>
        </g>
    </g>
</svg>