<?xml version="1.0" encoding="UTF-8" standalone="no"?>
<svg width="24px" height="25px" viewBox="0 0 24 25" version="1.1" xmlns="http://www.w3.org/2000/svg" xmlns:xlink="http://www.w3.org/1999/xlink">
    <!-- Generator: Sketch 42 (36781) - http://www.bohemiancoding.com/sketch -->
    <title>ico_comida</title>
    <desc>Created with Sketch.</desc>
    <defs></defs>
    <g id="BUSCADOR" stroke="none" stroke-width="1" fill="none" fill-rule="evenodd">
        <g id="assets" transform="translate(-1285.000000, -134.000000)" fill="#373F51">
            <g id="ico_comida" transform="translate(1285.000000, 134.000000)">
                <g id="Page-1">
                    <path d="M17,8.5117 C17,8.7867 16.776,9.0117 16.5,9.0117 L16,9.0117 L15,9.0117 L14.5,9.0117 C14.224,9.0117 14,8.7867 14,8.5117 L14,7.0117 L17,7.0117 L17,8.5117 Z M17,-0.0003 L18,-0.0003 L18,8.5117 C18,9.3387 17.327,10.0117 16.5,10.0117 L16,10.0117 L16,24.0117 L15,24.0117 L15,10.0117 L14.5,10.0117 C13.673,10.0117 13,9.3387 13,8.5117 L13,-0.0003 L14,-0.0003 L14,6.0117 L15,6.0117 L15,-0.0003 L16,-0.0003 L16,6.0117 L17,6.0117 L17,-0.0003 Z M23,0.0117 C23.551,0.0117 24,0.4597 24,1.0117 L24,13.5117 L24,14.5117 L24,24.0117 L23,24.0117 L23,15.0117 L20.5,15.0117 C20.224,15.0117 20,14.7877 20,14.5117 C20,3.9727 22.487,0.3687 22.593,0.2207 C22.687,0.0897 22.838,0.0117 23,0.0117 Z M23,14.0117 L23,13.5117 L23,1.5767 C22.329,3.0587 21.059,6.8037 21.002,14.0117 L23,14.0117 Z M0,0.0508 C6.158,0.5598 11,5.7098 11,11.9998 C11,18.2898 6.158,23.4408 0,23.9488 L0,22.9488 C5.606,22.4438 10,17.7378 10,11.9998 C10,6.2628 5.606,1.5568 0,1.0508 L0,0.0508 Z M0,5.0791 C3.391,5.5661 6,8.4751 6,12.0001 C6,15.5251 3.391,18.4331 0,18.9211 L0,17.9101 C2.836,17.4331 5,14.9731 5,12.0001 C5,9.0271 2.836,6.5671 0,6.0901 L0,5.0791 Z" id="Combined-Shape"></path>
                </g>
            </g>
        </g>
    </g>
</svg>