<?xml version="1.0" encoding="UTF-8"?>
<svg width="32px" height="31px" viewBox="0 0 32 31" version="1.1" xmlns="http://www.w3.org/2000/svg" xmlns:xlink="http://www.w3.org/1999/xlink">
    <!-- Generator: Sketch 44.1 (41455) - http://www.bohemiancoding.com/sketch -->
    <title>Ico_sobre_leido</title>
    <desc>Created with Sketch.</desc>
    <defs></defs>
    <g id="PERFIL" stroke="none" stroke-width="1" fill="none" fill-rule="evenodd">
        <g id="Mi_perfil_AUXILIAR_MENSAJES-Copy" transform="translate(-166.000000, -941.000000)" fill="#D2D2D2">
            <g id="Group-2-Copy-4" transform="translate(166.000000, 896.000000)">
                <path d="M29,73.9995 L3,73.9995 C2.449,73.9995 2,73.5515 2,72.9995 L2,57.2285 L15.419,66.8125 C15.593,66.9375 15.796,66.9995 16,66.9995 C16.204,66.9995 16.407,66.9375 16.581,66.8125 L30,57.2285 L30,72.9995 C30,73.5515 29.551,73.9995 29,73.9995 M30.616,54.4795 C30.592,54.4605 30.578,54.4335 30.551,54.4155 L16.551,45.1655 C16.217,44.9445 15.783,44.9445 15.449,45.1655 L1.449,54.4155 C1.422,54.4335 1.408,54.4605 1.384,54.4795 C0.554,55.0145 0,55.9405 0,56.9995 L0,72.9995 C0,74.6535 1.346,75.9995 3,75.9995 L29,75.9995 C30.654,75.9995 32,74.6535 32,72.9995 L32,56.9995 C32,55.9405 31.446,55.0145 30.616,54.4795" id="Ico_sobre_leido"></path>
            </g>
        </g>
    </g>
</svg>