<?xml version="1.0" encoding="UTF-8"?>
<svg width="24px" height="24px" viewBox="0 0 24 24" version="1.1" xmlns="http://www.w3.org/2000/svg" xmlns:xlink="http://www.w3.org/1999/xlink">
    <!-- Generator: Sketch 44.1 (41455) - http://www.bohemiancoding.com/sketch -->
    <title>ico_estrella_off</title>
    <desc>Created with Sketch.</desc>
    <defs></defs>
    <g id="PERFIL" stroke="none" stroke-width="1" fill="none" fill-rule="evenodd">
        <g id="Mi_perfil_AUXILIAR_MENSAJES-Copy" transform="translate(-1154.000000, -1056.000000)" fill="#F3F3F3">
            <g id="Group-2-Copy-3" transform="translate(122.000000, 1032.000000)">
                <path d="M1044.00147,24 C1042.92847,24 1042.01047,24.704 1041.71447,25.761 L1040.36747,30.845 C1040.25947,31.229 1039.91447,31.499 1039.52847,31.499 L1034.37947,31.499 C1033.34147,31.499 1032.45847,32.144 1032.12847,33.141 C1031.79347,34.155 1032.12647,35.219 1032.97747,35.851 L1036.88747,38.754 C1037.20547,38.99 1037.33447,39.421 1037.20547,39.791 L1035.36547,44.776 C1035.00747,45.8 1035.35347,46.911 1036.22447,47.542 C1036.64547,47.848 1037.12547,48 1037.60447,48 C1038.10347,48 1038.60147,47.835 1039.03347,47.504 L1043.48247,44.097 C1043.63847,43.979 1043.81947,43.919 1044.00147,43.919 C1044.18347,43.919 1044.36447,43.979 1044.52047,44.097 L1048.96947,47.504 C1049.40147,47.835 1049.89947,48 1050.39847,48 C1050.87747,48 1051.35747,47.848 1051.77847,47.542 C1052.64947,46.911 1052.99547,45.8 1052.63247,44.765 L1050.80247,39.803 C1050.66847,39.421 1050.79747,38.99 1051.11547,38.754 L1055.02547,35.851 C1055.87647,35.219 1056.20947,34.155 1055.87447,33.141 C1055.54447,32.144 1054.66147,31.499 1053.62347,31.499 L1048.47447,31.499 C1048.08847,31.499 1047.74347,31.229 1047.63847,30.855 L1046.28847,25.761 C1046.28647,25.757 1046.28647,25.754 1046.28547,25.75 C1045.99247,24.704 1045.07447,24 1044.00147,24" id="ico_estrella_off"></path>
            </g>
        </g>
    </g>
</svg>