<?xml version="1.0" encoding="UTF-8" standalone="no"?>
<svg width="16px" height="24px" viewBox="0 0 16 24" version="1.1" xmlns="http://www.w3.org/2000/svg" xmlns:xlink="http://www.w3.org/1999/xlink">
    <!-- Generator: Sketch 42 (36781) - http://www.bohemiancoding.com/sketch -->
    <title>ico_voluntario</title>
    <desc>Created with Sketch.</desc>
    <defs></defs>
    <g id="BUSCADOR" stroke="none" stroke-width="1" fill="none" fill-rule="evenodd">
        <g id="assets" transform="translate(-1001.000000, -134.000000)" fill="#2B2B2B">
            <path d="M1016,149 L1016,153.5 C1016,155.43 1014.43,157 1012.5,157 L1005.5,157 C1003.57,157 1002,155.43 1002,153.5 L1002,146 L1002,141 C1002,140.448 1002.449,140 1003,140 C1003.551,140 1004,140.448 1004,141 L1004,146 L1005,146 L1005,141 L1005,138 C1005,137.448 1005.449,137 1006,137 C1006.551,137 1007,137.448 1007,138 L1007,146 L1008,146 L1008,138 L1008,136 C1008,135.448 1008.449,135 1009,135 C1009.551,135 1010,135.448 1010,136 L1010,138 L1010,146 L1011,146 L1011,138 C1011,137.448 1011.449,137 1012,137 C1012.551,137 1013,137.448 1013,138 L1013,144 L1013,146 L1013,149 L1014,149 L1014,146 L1014,144 C1014,143.448 1014.449,143 1015,143 C1015.551,143 1016,143.448 1016,144 L1016,146 L1016,149 Z M1015,142 C1014.634,142 1014.295,142.105 1014,142.278 L1014,138 C1014,136.897 1013.103,136 1012,136 C1011.634,136 1011.295,136.105 1011,136.278 L1011,136 C1011,134.897 1010.103,134 1009,134 C1007.897,134 1007,134.897 1007,136 L1007,136.278 C1006.705,136.105 1006.366,136 1006,136 C1004.897,136 1004,136.897 1004,138 L1004,139.278 C1003.705,139.105 1003.366,139 1003,139 C1001.897,139 1001,139.897 1001,141 L1001,146 L1001,153.5 C1001,155.981 1003.019,158 1005.5,158 L1012.5,158 C1014.981,158 1017,155.981 1017,153.5 L1017,149 L1017,146 L1017,144 C1017,142.897 1016.103,142 1015,142 L1015,142 Z" id="ico_voluntario"></path>
        </g>
    </g>
</svg>