<?xml version="1.0" encoding="UTF-8" standalone="no"?>
<svg width="22px" height="24px" viewBox="0 0 22 24" version="1.1" xmlns="http://www.w3.org/2000/svg" xmlns:xlink="http://www.w3.org/1999/xlink">
    <!-- Generator: Sketch 42 (36781) - http://www.bohemiancoding.com/sketch -->
    <title>ico_calendario</title>
    <desc>Created with Sketch.</desc>
    <defs></defs>
    <g id="BUSCADOR" stroke="none" stroke-width="1" fill="none" fill-rule="evenodd">
        <g id="assets" transform="translate(-421.000000, -134.000000)">
            <g id="ico_calendario" transform="translate(421.000000, 134.000000)">
                <path d="M19.5,23.5 L2.5,23.5 C1.396,23.5 0.5,22.604 0.5,21.5 L0.5,6.5 L21.5,6.5 L21.5,21.5 C21.5,22.604 20.604,23.5 19.5,23.5 Z" id="Stroke-1" stroke="#2D2D2D" stroke-linecap="round" stroke-linejoin="round"></path>
                <path d="M12.5,2 C12.5,2.828 11.829,3.5 11,3.5 C10.171,3.5 9.5,2.828 9.5,2" id="Stroke-3" stroke="#2D2D2D" stroke-linecap="round" stroke-linejoin="round"></path>
                <path d="M12.5,2 C12.5,1.172 13.171,0.5 14,0.5 C14.829,0.5 15.5,1.172 15.5,2" id="Stroke-5" stroke="#2D2D2D" stroke-linecap="round" stroke-linejoin="round"></path>
                <path d="M18.5,2 C18.5,2.828 17.829,3.5 17,3.5 C16.171,3.5 15.5,2.828 15.5,2" id="Stroke-7" stroke="#2D2D2D" stroke-linecap="round" stroke-linejoin="round"></path>
                <path d="M18.5,2 C18.5,1.172 19.171,0.5 20,0.5 C20.829,0.5 21.5,1.172 21.5,2 L21.5,6.5" id="Stroke-9" stroke="#2D2D2D" stroke-linecap="round" stroke-linejoin="round"></path>
                <path d="M3.5,2 C3.5,1.172 2.829,0.5 2,0.5 C1.171,0.5 0.5,1.172 0.5,2 L0.5,6.5" id="Stroke-11" stroke="#2D2D2D" stroke-linecap="round" stroke-linejoin="round"></path>
                <path d="M6.5,2 C6.5,2.828 5.829,3.5 5,3.5 C4.171,3.5 3.5,2.828 3.5,2" id="Stroke-13" stroke="#2D2D2D" stroke-linecap="round" stroke-linejoin="round"></path>
                <path d="M6.5,2 C6.5,1.172 7.171,0.5 8,0.5 C8.829,0.5 9.5,1.172 9.5,2" id="Stroke-15" stroke="#2D2D2D" stroke-linecap="round" stroke-linejoin="round"></path>
                <path d="M7,10.5 C8.381,10.5 9.5,11.619 9.5,13" id="Stroke-17" stroke="#2D2D2D" stroke-linecap="round" stroke-linejoin="round"></path>
                <path d="M4.5,19.5 L9.5,19.5" id="Stroke-19" stroke="#2D2D2D" stroke-linecap="round" stroke-linejoin="round"></path>
                <path d="M4.5,10.5 L7,10.5" id="Stroke-21" stroke="#2D2D2D" stroke-linecap="round" stroke-linejoin="round"></path>
                <path d="M12.5,19.5 L15.5,19.5" id="Stroke-23" stroke="#2D2D2D" stroke-linecap="round" stroke-linejoin="round"></path>
                <path d="M12.5,10.5 L15,10.5" id="Stroke-25" stroke="#2D2D2D" stroke-linecap="round" stroke-linejoin="round"></path>
                <path d="M13.501,15.5 L15.5,15.5" id="Stroke-27" stroke="#2D2D2D" stroke-linecap="round" stroke-linejoin="round"></path>
                <path d="M9.5,13 C9.5,15.984 4.422,16 4.422,19.5" id="Stroke-29" stroke="#2D2D2D" stroke-linecap="round" stroke-linejoin="round"></path>
                <path d="M15,10 L15,11 C16.104,11 17,11.896 17,13 C17,14.104 16.104,15 15,15 L15,16 C16.657,16 18,14.657 18,13 C18,11.343 16.657,10 15,10" id="Fill-31" fill="#2D2D2D"></path>
                <path d="M15.5,15 L15.5,16 C16.329,16 17,16.672 17,17.5 C17,18.328 16.329,19 15.5,19 L15.5,20 C16.881,20 18,18.881 18,17.5 C18,16.119 16.881,15 15.5,15" id="Fill-33" fill="#2D2D2D"></path>
            </g>
        </g>
    </g>
</svg>