<?xml version="1.0" encoding="UTF-8" standalone="no"?>
<svg width="22px" height="24px" viewBox="0 0 22 24" version="1.1" xmlns="http://www.w3.org/2000/svg" xmlns:xlink="http://www.w3.org/1999/xlink">
    <!-- Generator: Sketch 42 (36781) - http://www.bohemiancoding.com/sketch -->
    <title>ico_calendario_selected</title>
    <desc>Created with Sketch.</desc>
    <defs></defs>
    <g id="BUSCADOR" stroke="none" stroke-width="1" fill="none" fill-rule="evenodd">
        <g id="assets" transform="translate(-421.000000, -278.000000)" fill="#61CFFF">
            <g id="ico_calendario_selected" transform="translate(421.000000, 278.000000)">
                <path d="M22,6 L0,6 L0,2 C0,0.897 0.897,0 2,0 C3.103,0 4,0.897 4,2 C4,2.552 4.449,3 5,3 C5.551,3 6,2.552 6,2 C6,0.897 6.897,0 8,0 C9.103,0 10,0.897 10,2 C10,2.552 10.449,3 11,3 C11.551,3 12,2.552 12,2 C12,0.897 12.897,0 14,0 C15.103,0 16,0.897 16,2 C16,2.552 16.449,3 17,3 C17.551,3 18,2.552 18,2 C18,0.897 18.897,0 20,0 C21.103,0 22,0.897 22,2 L22,6 Z M0,7 L22,7 L22,21.5 C22,22.879 20.878,24 19.5,24 L2.5,24 C1.122,24 0,22.879 0,21.5 L0,7 Z M9.5,19 L4.971,19 C5.201,17.78 6.262,17.097 7.382,16.381 C8.669,15.558 10,14.706 10,13 C10,11.346 8.654,10 7,10 L4.5,10 C4.224,10 4,10.224 4,10.5 C4,10.776 4.224,11 4.5,11 L7,11 C8.103,11 9,11.897 9,13 C9,14.159 8,14.798 6.843,15.538 C5.474,16.414 3.922,17.406 3.922,19.5 C3.922,19.776 4.146,20 4.422,20 C4.436,20 4.447,19.993 4.461,19.992 C4.475,19.993 4.486,20 4.5,20 L9.5,20 C9.776,20 10,19.776 10,19.5 C10,19.224 9.776,19 9.5,19 Z M18,17.5 C18,16.602 17.521,15.819 16.809,15.379 C17.528,14.831 18,13.974 18,13 C18,11.343 16.657,10 15,10 L12.5,10 C12.224,10 12,10.224 12,10.5 C12,10.776 12.224,11 12.5,11 L15,11 C16.104,11 17,11.896 17,13 C17,14.104 16.104,15 15,15 L13.501,15 C13.225,15 13.001,15.224 13.001,15.5 C13.001,15.776 13.225,16 13.501,16 L15.5,16 C16.329,16 17,16.672 17,17.5 C17,18.328 16.329,19 15.5,19 L12.5,19 C12.224,19 12,19.224 12,19.5 C12,19.776 12.224,20 12.5,20 L15.5,20 C16.881,20 18,18.881 18,17.5 Z" id="Combined-Shape"></path>
            </g>
        </g>
    </g>
</svg>