<?xml version="1.0" encoding="UTF-8" standalone="no"?>
<svg width="16px" height="24px" viewBox="0 0 16 24" version="1.1" xmlns="http://www.w3.org/2000/svg" xmlns:xlink="http://www.w3.org/1999/xlink">
    <!-- Generator: Sketch 42 (36781) - http://www.bohemiancoding.com/sketch -->
    <title>icon_hombre_selected</title>
    <desc>Created with Sketch.</desc>
    <defs></defs>
    <g id="Assets" stroke="none" stroke-width="1" fill="none" fill-rule="evenodd">
        <g id="assets" transform="translate(-280.000000, -566.000000)" fill="#61CFFF">
            <path d="M288.000962,574 C285.794962,574 284.000962,572.206 284.000962,570 C284.000962,567.794 285.794962,566 288.000962,566 C290.206962,566 292.000962,567.794 292.000962,570 C292.000962,572.206 290.206962,574 288.000962,574 Z M280.219662,578.3791 C279.930662,577.8891 279.926662,577.3011 280.208662,576.8081 C280.496662,576.3021 281.020662,576.0001 281.609662,576.0001 L294.390662,576.0001 C294.979662,576.0001 295.503662,576.3021 295.792662,576.8081 C296.074662,577.3011 296.070662,577.8891 295.781662,578.3791 L289.390662,589.2121 C289.099662,589.7051 288.579662,590.0001 288.000662,590.0001 C287.420662,590.0001 286.901662,589.7051 286.610662,589.2121 L280.219662,578.3791 Z" id="icon_hombre_selected"></path>
        </g>
    </g>
</svg>