<?xml version="1.0" encoding="UTF-8" standalone="no"?>
<svg width="25px" height="25px" viewBox="0 0 25 25" version="1.1" xmlns="http://www.w3.org/2000/svg" xmlns:xlink="http://www.w3.org/1999/xlink">
    <!-- Generator: Sketch 42 (36781) - http://www.bohemiancoding.com/sketch -->
    <title>ico_idioma_selected</title>
    <desc>Created with Sketch.</desc>
    <defs></defs>
    <g id="BUSCADOR" stroke="none" stroke-width="1" fill="none" fill-rule="evenodd">
        <g id="assets" transform="translate(-132.000000, -278.000000)" fill="#61CFFF">
            <g id="ico_idioma_selected" transform="translate(132.000000, 278.000000)">
                <path d="M6.5053,11.4427 C6.5363,9.8657 6.7133,8.3577 7.0083,6.9807 C8.4123,7.2747 9.9183,7.4437 11.4713,7.4707 L11.4713,11.4427 L6.5053,11.4427 Z M6.9931,16.8382 C6.7061,15.4792 6.5361,13.9942 6.5051,12.4422 L11.4711,12.4422 L11.4711,16.3302 C9.9091,16.3622 8.3991,16.5362 6.9931,16.8382 Z M11.4712,6.471 C9.9952,6.444 8.5682,6.285 7.2412,6.01 C8.1182,2.724 9.6842,0.374 11.4712,-1.77635684e-15 L11.4712,6.471 Z M17.6924,5.7561 C17.0704,3.4031 16.0994,1.5061 14.9094,0.3161 C17.4094,0.9511 19.6114,2.3861 21.2174,4.3301 C20.2184,4.9211 19.0214,5.4001 17.6924,5.7561 Z M17.9219,6.7268 C19.3959,6.3338 20.7259,5.7998 21.8259,5.1348 C23.0329,6.8708 23.7989,8.9268 23.9439,11.1298 C23.9509,11.2348 23.9499,11.3378 23.9519,11.4428 L18.4369,11.4428 C18.4069,9.7628 18.2299,8.1728 17.9219,6.7268 Z M12.4712,0.0003 C14.2552,0.3733 15.8182,2.7163 16.6972,5.9943 C15.3732,6.2743 13.9492,6.4373 12.4712,6.4693 L12.4712,0.0003 Z M18.437,12.4427 L23.948,12.4427 C23.859,14.6707 23.176,16.7977 21.917,18.6587 L21.917,18.6607 C20.803,17.9857 19.446,17.4487 17.947,17.0547 C18.241,15.6377 18.407,14.0817 18.437,12.4427 Z M11.4712,23.885 C9.6722,23.509 8.0962,21.13 7.2222,17.809 C8.5522,17.526 9.9852,17.363 11.4712,17.329 L11.4712,23.885 Z M17.437,12.4427 C17.407,13.9877 17.237,15.4657 16.953,16.8207 C15.543,16.5247 14.031,16.3557 12.471,16.3277 L12.471,12.4427 L17.437,12.4427 Z M6.001,17.0765 C4.517,17.4725 3.177,18.0125 2.075,18.6855 C0.966,17.0755 0.232,15.1935 0.032,13.1655 C0.008,12.9235 0.007,12.6825 0,12.4425 L5.505,12.4425 C5.535,14.0895 5.704,15.6535 6.001,17.0765 Z M12.4712,17.3274 C13.9552,17.3544 15.3912,17.5144 16.7252,17.7924 C15.8512,21.1224 14.2732,23.5084 12.4712,23.8854 L12.4712,17.3274 Z M22.1274,19.9651 L24.2604,24.2331 L19.4874,21.8451 C19.2264,21.7141 18.9194,21.7321 18.6874,21.8891 C17.5174,22.6811 16.2394,23.2411 14.9004,23.5751 C16.1104,22.3681 17.0954,20.4311 17.7164,18.0271 C19.1114,18.3951 20.3714,18.8931 21.4004,19.5171 C21.5614,19.6131 21.7504,19.6031 21.9024,19.5171 L22.1244,19.9601 C22.1254,19.9621 22.1264,19.9631 22.1274,19.9651 Z M6.2309,18.0472 C6.8539,20.4452 7.8379,22.3772 9.0469,23.5812 C6.5199,22.9392 4.2969,21.4692 2.6799,19.4912 C3.6819,18.8932 4.8899,18.4082 6.2309,18.0472 Z M16.9306,6.9641 C17.2276,8.3461 17.4056,9.8591 17.4366,11.4431 L12.4716,11.4431 L12.4716,7.4681 C14.0256,7.4361 15.5296,7.2631 16.9306,6.9641 Z M5.5053,11.4427 L0.0013,11.4427 C0.0963,9.1837 0.8083,7.0157 2.0753,5.1657 C3.1853,5.8297 4.5303,6.3597 6.0153,6.7487 C5.7103,8.1887 5.5353,9.7717 5.5053,11.4427 Z M6.2451,5.7766 C4.9001,5.4226 3.6861,4.9466 2.6761,4.3546 C2.9301,4.0446 3.1991,3.7446 3.4861,3.4576 C5.0351,1.9096 6.9491,0.8526 9.0191,0.3296 C7.8321,1.5246 6.8641,3.4236 6.2451,5.7766 Z" id="Combined-Shape"></path>
            </g>
        </g>
    </g>
</svg>