<?xml version="1.0" encoding="UTF-8"?>
<svg width="30px" height="32px" viewBox="0 0 30 32" version="1.1" xmlns="http://www.w3.org/2000/svg" xmlns:xlink="http://www.w3.org/1999/xlink">
    <!-- Generator: Sketch 45.1 (43504) - http://www.bohemiancoding.com/sketch -->
    <title>ico_papelera</title>
    <desc>Created with Sketch.</desc>
    <defs></defs>
    <g id="PERFIL" stroke="none" stroke-width="1" fill="none" fill-rule="evenodd">
        <g id="Mi_perfil_AUXILIAR_MENSAJES_HOVER" transform="translate(-1247.000000, -940.000000)" fill="#2D2D2D">
            <g id="Group-2-Copy-3" transform="translate(122.000000, 896.000000)">
                <path d="M1139,46 L1141,46 C1141.551,46 1142,46.448 1142,47 L1138,47 C1138,46.448 1138.449,46 1139,46 M1152,47 C1153.654,47 1155,48.346 1155,50 L1155,53 C1155,53.553 1154.552,54 1154,54 C1153.448,54 1153,53.553 1153,53 L1153,50 C1153,49.448 1152.551,49 1152,49 L1128,49 C1127.449,49 1127,49.448 1127,50 L1127,53 C1127,53.553 1126.552,54 1126,54 C1125.448,54 1125,53.553 1125,53 L1125,50 C1125,48.346 1126.346,47 1128,47 L1136,47 C1136,45.346 1137.346,44 1139,44 L1141,44 C1142.654,44 1144,45.346 1144,47 L1152,47 Z M1150,51 C1150.552,51 1151,51.447 1151,52 L1151,73 C1151,74.654 1149.654,76 1148,76 L1132,76 C1130.346,76 1129,74.654 1129,73 L1129,52 C1129,51.447 1129.448,51 1130,51 C1130.552,51 1131,51.447 1131,52 L1131,73 C1131,73.552 1131.449,74 1132,74 L1148,74 C1148.551,74 1149,73.552 1149,73 L1149,52 C1149,51.447 1149.448,51 1150,51 Z M1137,69 C1137,69.553 1136.552,70 1136,70 C1135.448,70 1135,69.553 1135,69 L1135,56 C1135,55.447 1135.448,55 1136,55 C1136.552,55 1137,55.447 1137,56 L1137,69 Z M1141,69 C1141,69.553 1140.552,70 1140,70 C1139.448,70 1139,69.553 1139,69 L1139,56 C1139,55.447 1139.448,55 1140,55 C1140.552,55 1141,55.447 1141,56 L1141,69 Z M1145,69 C1145,69.553 1144.552,70 1144,70 C1143.448,70 1143,69.553 1143,69 L1143,56 C1143,55.447 1143.448,55 1144,55 C1144.552,55 1145,55.447 1145,56 L1145,69 Z" id="ico_papelera"></path>
            </g>
        </g>
    </g>
</svg>