<?xml version="1.0" encoding="UTF-8" standalone="no"?>
<svg width="24px" height="24px" viewBox="0 0 24 24" version="1.1" xmlns="http://www.w3.org/2000/svg" xmlns:xlink="http://www.w3.org/1999/xlink">
    <!-- Generator: Sketch 42 (36781) - http://www.bohemiancoding.com/sketch -->
    <title>ico_tandem</title>
    <desc>Created with Sketch.</desc>
    <defs>
        <polygon id="path-1" points="0.4196 1 1.4196 1 1.4196 0.952 0.4196 0.952 0.4196 1"></polygon>
        <polygon id="path-3" points="9.98271265 15 0.2212 15 0.2212 0.0034 9.98271265 0.0034 9.98271265 15"></polygon>
    </defs>
    <g id="BUSCADOR" stroke="none" stroke-width="1" fill="none" fill-rule="evenodd">
        <g id="assets" transform="translate(-852.000000, -278.000000)">
            <g id="ico_tandem" transform="translate(852.000000, 278.000000)">
                <path d="M8.4772,1 C9.8552,1 10.9772,2.121 10.9772,3.5 C10.9772,4.879 9.8552,6 8.4772,6 C7.0992,6 5.9772,4.879 5.9772,3.5 C5.9772,2.121 7.0992,1 8.4772,1 M8.4772,7 C10.4072,7 11.9772,5.43 11.9772,3.5 C11.9772,1.57 10.4072,0 8.4772,0 C6.5472,0 4.9772,1.57 4.9772,3.5 C4.9772,5.43 6.5472,7 8.4772,7" id="Fill-1" fill="#1D1D1B"></path>
                <path d="M8.4772,10.0029 C10.3302,10.0029 11.5952,10.4129 11.9942,11.1279 L11.4982,22.9999 L5.4582,22.9999 L5.0052,11.1199 C5.2912,10.5889 6.3412,10.0029 8.4772,10.0029 L8.4772,10.0029 Z M12.9732,10.8369 C12.9722,10.8349 12.9702,10.8339 12.9702,10.8319 C12.9672,10.8239 12.9622,10.8169 12.9592,10.8099 C12.9572,10.8049 12.9572,10.7989 12.9562,10.7939 C12.5862,9.9769 11.5102,9.0029 8.4772,9.0029 C6.1312,9.0029 4.5132,9.6609 4.0382,10.8089 C4.0372,10.8119 4.0382,10.8139 4.0372,10.8159 C4.0352,10.8209 4.0332,10.8249 4.0312,10.8299 C4.0302,10.8329 4.0282,10.8339 4.0282,10.8359 L0.0282,22.3359 C-0.0628,22.5969 0.0752,22.8819 0.3362,22.9729 C0.3902,22.9909 0.4452,22.9999 0.5002,22.9999 C0.7072,22.9999 0.9002,22.8709 0.9722,22.6639 L4.1022,13.6669 L4.4772,23.5199 C4.4782,23.5539 4.4922,23.5829 4.5002,23.6149 C4.5072,23.6449 4.5092,23.6749 4.5202,23.7009 C4.5352,23.7329 4.5582,23.7589 4.5782,23.7869 C4.5952,23.8109 4.6072,23.8369 4.6282,23.8569 C4.6552,23.8829 4.6882,23.8989 4.7202,23.9189 C4.7432,23.9329 4.7612,23.9509 4.7852,23.9609 C4.8442,23.9859 4.9092,23.9999 4.9772,23.9999 L4.9962,23.9999 L11.9562,23.9999 L11.9772,23.9999 L11.9772,23.9999 C12.0452,23.9999 12.1102,23.9859 12.1692,23.9609 C12.1902,23.9529 12.2062,23.9369 12.2252,23.9249 C12.2602,23.9039 12.2972,23.8859 12.3262,23.8569 C12.3452,23.8379 12.3562,23.8139 12.3722,23.7919 C12.3942,23.7629 12.4182,23.7349 12.4332,23.7009 C12.4452,23.6749 12.4472,23.6449 12.4542,23.6159 C12.4612,23.5839 12.4752,23.5549 12.4772,23.5209 L12.8892,13.6529 L16.0162,22.6849 C16.0872,22.8919 16.2812,23.0219 16.4882,23.0219 C16.5422,23.0219 16.5982,23.0129 16.6522,22.9939 C16.9132,22.9029 17.0512,22.6189 16.9612,22.3579 L12.9732,10.8369 Z" id="Fill-3" fill="#1D1D1B"></path>
                <g id="Group-7" transform="translate(14.000000, 23.000000)">
                    <mask id="mask-2" fill="white">
                        <use xlink:href="#path-1"></use>
                    </mask>
                    <g id="Clip-6"></g>
                    <path d="M0.4196,1 L0.4766,1 C0.4636,0.982 0.4456,0.97 0.4336,0.952 L0.4196,1 Z" id="Fill-5" fill="#1D1D1B" mask="url(#mask-2)"></path>
                </g>
                <g id="Group-10" transform="translate(14.000000, 9.000000)">
                    <mask id="mask-4" fill="white">
                        <use xlink:href="#path-3"></use>
                    </mask>
                    <g id="Clip-9"></g>
                    <path d="M9.9552,13.3584 L5.9672,1.8374 C5.9662,1.8354 5.9642,1.8344 5.9642,1.8324 C5.9612,1.8244 5.9562,1.8174 5.9532,1.8094 C5.9512,1.8044 5.9522,1.7984 5.9502,1.7944 C5.5802,0.9764 4.5042,0.0034 1.4712,0.0034 C1.0232,0.0034 0.6122,0.0344 0.2212,0.0814 C0.4122,0.3174 0.5692,0.5574 0.6892,0.7944 L0.8062,0.9474 L0.8602,1.1634 L0.8932,1.2364 L0.9052,1.3184 L4.8462,12.7044 C5.1252,13.5074 4.9652,14.3594 4.4952,15.0004 L4.9502,15.0004 L4.9712,15.0004 L4.9712,15.0004 C5.0392,15.0004 5.1032,14.9864 5.1632,14.9614 C5.1842,14.9534 5.1992,14.9364 5.2192,14.9244 C5.2542,14.9044 5.2902,14.8854 5.3202,14.8564 C5.3392,14.8374 5.3502,14.8134 5.3662,14.7924 C5.3882,14.7624 5.4122,14.7354 5.4272,14.7014 C5.4382,14.6744 5.4402,14.6444 5.4472,14.6164 C5.4552,14.5844 5.4692,14.5544 5.4702,14.5204 L5.8832,4.6534 L9.0102,13.6844 C9.0812,13.8914 9.2752,14.0214 9.4822,14.0214 C9.5372,14.0214 9.5922,14.0124 9.6462,13.9944 C9.9072,13.9034 10.0452,13.6194 9.9552,13.3584" id="Fill-8" fill="#1D1D1B" mask="url(#mask-4)"></path>
                </g>
                <path d="M15.4708,7 C17.4008,7 18.9708,5.43 18.9708,3.5 C18.9708,1.57 17.4008,0 15.4708,0 C14.6328,0 13.8728,0.309 13.2688,0.802 C13.7208,1.6 13.9818,2.52 13.9818,3.5 C13.9818,4.48 13.7188,5.398 13.2658,6.195 C13.8698,6.69 14.6308,7 15.4708,7" id="Fill-11" fill="#1D1D1B"></path>
            </g>
        </g>
    </g>
</svg>