<?xml version="1.0" encoding="UTF-8" standalone="no"?>
<svg width="24px" height="24px" viewBox="0 0 24 24" version="1.1" xmlns="http://www.w3.org/2000/svg" xmlns:xlink="http://www.w3.org/1999/xlink">
    <!-- Generator: Sketch 42 (36781) - http://www.bohemiancoding.com/sketch -->
    <title>ico_dinero_selected</title>
    <desc>Created with Sketch.</desc>
    <defs></defs>
    <g id="BUSCADOR" stroke="none" stroke-width="1" fill="none" fill-rule="evenodd">
        <g id="assets" transform="translate(-708.000000, -278.000000)" fill="#61CFFF">
            <path d="M720.313,289.609 C721.573,290.617 723.001,291.759 723.001,294 C723.001,295.484 721.915,296.712 720.497,296.95 C720.497,296.957 720.5,296.962 720.5,296.968 L720.5,298.5 C720.5,298.776 720.277,299 720.001,299 C719.724,299 719.501,298.776 719.501,298.5 L719.501,296.968 C719.501,296.962 719.504,296.957 719.504,296.95 C718.086,296.712 717,295.484 717,294 C717,293.723 717.224,293.5 717.5,293.5 C717.777,293.5 718,293.723 718,294 C718,295.102 718.897,296 720.001,296 C721.104,296 722,295.102 722,294 C722,292.24 720.929,291.382 719.688,290.39 C718.428,289.382 717,288.24 717,286 C717,284.513 718.09,283.285 719.51,283.049 C719.509,283.032 719.501,283.017 719.501,283 L719.501,281.468 C719.501,281.192 719.724,280.968 720.001,280.968 C720.277,280.968 720.5,281.192 720.5,281.468 L720.5,283 C720.5,283.017 720.492,283.032 720.491,283.049 C721.911,283.285 723.001,284.513 723.001,286 C723.001,286.276 722.777,286.5 722.501,286.5 C722.224,286.5 722,286.276 722,286 C722,284.897 721.104,284 720.001,284 C718.897,284 718,284.897 718,286 C718,287.759 719.072,288.617 720.313,289.609 M720.001,278 C713.384,278 708,283.382 708,290 C708,296.617 713.384,302 720.001,302 C726.617,302 732.001,296.617 732.001,290 C732.001,283.382 726.617,278 720.001,278" id="ico_dinero_selected"></path>
        </g>
    </g>
</svg>