<?xml version="1.0" encoding="UTF-8" standalone="no"?>
<svg width="16px" height="24px" viewBox="0 0 16 24" version="1.1" xmlns="http://www.w3.org/2000/svg" xmlns:xlink="http://www.w3.org/1999/xlink">
    <!-- Generator: Sketch 42 (36781) - http://www.bohemiancoding.com/sketch -->
    <title>Ico_duracion</title>
    <desc>Created with Sketch.</desc>
    <defs></defs>
    <g id="BUSCADOR" stroke="none" stroke-width="1" fill="none" fill-rule="evenodd">
        <g id="assets" transform="translate(-568.000000, -134.000000)" fill="#2D2D2D">
            <g id="Ico_duracion" transform="translate(568.000000, 134.000000)">
                <path d="M8.3062,11.5703 C4.6492,8.9953 1.1992,6.5513 1.0172,1.7953 C2.0052,1.5663 4.7822,1.0003 8.0122,1.0003 C11.2302,1.0003 13.9922,1.5623 14.9852,1.7923 C14.8462,5.4893 12.7832,7.8193 9.7112,10.1313 C9.4902,10.2973 9.4462,10.6103 9.6122,10.8313 C9.7102,10.9623 9.8602,11.0303 10.0122,11.0303 C10.1172,11.0303 10.2222,10.9983 10.3122,10.9293 C13.2722,8.7033 16.0122,6.0083 16.0122,1.4063 C16.0122,1.3943 16.0062,1.3843 16.0052,1.3733 C16.0032,1.3383 15.9942,1.3053 15.9842,1.2713 C15.9762,1.2423 15.9692,1.2133 15.9552,1.1853 C15.9412,1.1573 15.9212,1.1323 15.9022,1.1063 C15.8822,1.0813 15.8642,1.0563 15.8402,1.0363 C15.8172,1.0153 15.7912,1.0013 15.7642,0.9843 C15.7342,0.9663 15.7052,0.9503 15.6712,0.9383 C15.6612,0.9343 15.6532,0.9263 15.6422,0.9243 C15.5022,0.8853 12.1722,0.0003 8.0122,0.0003 C3.8512,0.0003 0.5102,0.8853 0.3702,0.9243 C0.1472,0.9833 0.0092,1.1853 0.0092,1.4063 L0.0002,1.4063 C0.0002,6.9453 3.9302,9.7123 7.7302,12.3883 C11.3772,14.9573 14.8172,17.3923 14.9942,22.1213 C14.0202,22.3713 11.2462,23.0003 8.0122,23.0003 C4.7862,23.0003 2.0192,22.3753 1.0382,22.1243 C1.1752,18.4433 3.2372,16.1193 6.3122,13.8093 C6.5332,13.6443 6.5772,13.3313 6.4112,13.1103 C6.2462,12.8893 5.9312,12.8423 5.7112,13.0103 C2.7512,15.2333 0.0122,17.9223 0.0122,22.5003 C0.0122,22.5093 0.0162,22.5173 0.0172,22.5273 C0.0192,22.5623 0.0282,22.5943 0.0372,22.6283 C0.0452,22.6583 0.0522,22.6873 0.0652,22.7163 C0.0782,22.7443 0.0982,22.7673 0.1172,22.7933 C0.1372,22.8193 0.1542,22.8453 0.1782,22.8673 C0.2012,22.8873 0.2272,22.9013 0.2532,22.9183 C0.2832,22.9363 0.3112,22.9543 0.3442,22.9663 C0.3532,22.9693 0.3602,22.9763 0.3692,22.9793 C0.5092,23.0203 3.8452,24.0003 8.0122,24.0003 C12.1792,24.0003 15.5142,23.0203 15.6542,22.9793 C15.8712,22.9153 16.0042,22.7153 16.0042,22.5003 L16.0122,22.5003 C16.0122,16.9963 12.0952,14.2383 8.3062,11.5703" id="Fill-1"></path>
            </g>
        </g>
    </g>
</svg>