<?xml version="1.0" encoding="UTF-8" standalone="no"?>
<svg width="24px" height="14px" viewBox="0 0 24 14" version="1.1" xmlns="http://www.w3.org/2000/svg" xmlns:xlink="http://www.w3.org/1999/xlink">
    <!-- Generator: Sketch 42 (36781) - http://www.bohemiancoding.com/sketch -->
    <title>ico_coche</title>
    <desc>Created with Sketch.</desc>
    <defs></defs>
    <g id="BUSCADOR" stroke="none" stroke-width="1" fill="none" fill-rule="evenodd">
        <g id="assets" transform="translate(-996.000000, -283.000000)" fill="#2B2B2B">
            <g id="ico_coche" transform="translate(996.000000, 283.000000)">
                <path d="M22.5,10 L20.816,10 C20.401,8.839 19.302,8 18,8 C16.698,8 15.599,8.839 15.184,10 L7.816,10 C7.401,8.839 6.302,8 5,8 C4.095,8 3.292,8.412 2.741,9.048 C1.646,8.197 1,6.905 1,5.5 C1,5.329 1.032,5.166 1.051,5 L7,5 L18.5,5 C20.981,5 23,7.019 23,9.5 C23,9.775 22.776,10 22.5,10 L22.5,10 Z M18,13 C16.897,13 16,12.103 16,11 C16,9.897 16.897,9 18,9 C19.103,9 20,9.897 20,11 C20,12.103 19.103,13 18,13 L18,13 Z M5,13 C3.897,13 3,12.103 3,11 C3,9.897 3.897,9 5,9 C6.103,9 7,9.897 7,11 C7,12.103 6.103,13 5,13 L5,13 Z M5.5,1 L7,1 L7,4 L1.276,4 C1.897,2.258 3.547,1 5.5,1 L5.5,1 Z M8,1 L8.479,1 C11.775,1 14.962,2.057 17.591,4 L8,4 L8,1 Z M19.247,4.057 C16.266,1.442 12.448,0 8.479,0 L7.5,0 L7,0 L5.5,0 C2.467,0 0,2.468 0,5.5 C0,7.254 0.825,8.862 2.216,9.899 C2.08,10.24 2,10.61 2,11 C2,12.654 3.346,14 5,14 C6.654,14 8,12.654 8,11 L15,11 C15,12.654 16.346,14 18,14 C19.654,14 21,12.654 21,11 L22.5,11 C23.327,11 24,10.327 24,9.5 C24,6.722 21.927,4.423 19.247,4.057 L19.247,4.057 Z" id="Fill-1"></path>
                <path d="M10.5,6 L8.5,6 C8.224,6 8,6.224 8,6.5 C8,6.776 8.224,7 8.5,7 L10.5,7 C10.776,7 11,6.776 11,6.5 C11,6.224 10.776,6 10.5,6" id="Fill-3"></path>
            </g>
        </g>
    </g>
</svg>