<?xml version="1.0" encoding="UTF-8" standalone="no"?>
<svg width="36px" height="37px" viewBox="0 0 36 37" version="1.1" xmlns="http://www.w3.org/2000/svg" xmlns:xlink="http://www.w3.org/1999/xlink">
    <!-- Generator: Sketch 42 (36781) - http://www.bohemiancoding.com/sketch -->
    <title>ico_colegios-empresas</title>
    <desc>Created with Sketch.</desc>
    <defs></defs>
    <g id="BUSCADOR" stroke="none" stroke-width="1" fill="none" fill-rule="evenodd">
        <g id="assets" transform="translate(-271.000000, -704.000000)" fill="#000000">
            <path d="M306.505,739.0071 C306.781,739.0071 307.005,739.2311 307.005,739.5071 C307.005,739.7831 306.781,740.0071 306.505,740.0071 L271.5,740.0071 C271.224,740.0071 271,739.7831 271,739.5071 C271,739.2311 271.224,739.0071 271.5,739.0071 L306.505,739.0071 Z M273.0001,736.5052 C273.0001,736.2302 273.2241,736.0052 273.5001,736.0052 L304.5051,736.0052 C304.7811,736.0052 305.0051,736.2302 305.0051,736.5052 C305.0051,736.7812 304.7811,737.0062 304.5051,737.0062 L273.5001,737.0062 C273.2241,737.0062 273.0001,736.7812 273.0001,736.5052 Z M275.0001,733.5042 C275.0001,733.2282 275.2251,733.0042 275.5011,733.0042 L302.5051,733.0042 C302.7811,733.0042 303.0051,733.2282 303.0051,733.5042 C303.0051,733.7802 302.7811,734.0042 302.5051,734.0042 L275.5011,734.0042 C275.2251,734.0042 275.0001,733.7802 275.0001,733.5042 Z M272.512,716.5564 C272.51,716.5364 272.5,716.5184 272.5,716.4994 C272.5,716.4874 272.506,716.4764 272.507,716.4654 C272.51,716.4314 272.518,716.3984 272.527,716.3654 C272.536,716.3344 272.544,716.3054 272.558,716.2774 C272.571,716.2504 272.59,716.2264 272.608,716.2024 C272.63,716.1744 272.651,716.1474 272.678,716.1244 C272.687,716.1164 272.691,716.1064 272.7,716.0984 L288.703,704.0934 C288.881,703.9594 289.125,703.9594 289.303,704.0934 L305.305,716.0984 C305.315,716.1064 305.318,716.1164 305.327,716.1244 C305.355,716.1474 305.375,716.1744 305.397,716.2024 C305.416,716.2264 305.434,716.2504 305.447,716.2774 C305.461,716.3054 305.469,716.3344 305.478,716.3634 C305.487,716.3974 305.496,716.4314 305.498,716.4664 C305.499,716.4774 305.505,716.4874 305.505,716.4994 C305.505,716.5184 305.496,716.5354 305.494,716.5554 C305.49,716.5894 305.484,716.6224 305.474,716.6554 C305.462,716.6884 305.447,716.7184 305.43,716.7474 C305.42,716.7644 305.417,716.7834 305.405,716.7994 C305.399,716.8074 305.389,716.8104 305.382,716.8184 C305.347,716.8594 305.307,716.8904 305.261,716.9194 C305.244,716.9294 305.231,716.9434 305.213,716.9514 C305.149,716.9804 305.08,716.9994 305.005,716.9994 L273,716.9994 C272.988,716.9994 272.979,716.9934 272.967,716.9924 C272.932,716.9904 272.899,716.9814 272.865,716.9724 C272.835,716.9634 272.807,716.9554 272.778,716.9414 C272.751,716.9284 272.728,716.9094 272.703,716.8904 C272.675,716.8694 272.649,716.8484 272.626,716.8224 C272.618,716.8134 272.607,716.8084 272.601,716.7994 C272.588,716.7834 272.586,716.7644 272.575,716.7474 C272.559,716.7184 272.543,716.6884 272.531,716.6554 C272.521,716.6224 272.516,716.5904 272.512,716.5564 Z M289.003,705.1184 L274.5,715.9994 L303.505,715.9994 L289.003,705.1184 Z M277.5001,729.5022 C277.5001,729.7782 277.2761,730.0022 277.0001,730.0022 C276.7241,730.0022 276.5001,729.7782 276.5001,729.5022 L276.5001,720.4972 C276.5001,720.2212 276.7241,719.9972 277.0001,719.9972 C277.2761,719.9972 277.5001,720.2212 277.5001,720.4972 L277.5001,729.5022 Z M301.5001,729.5022 C301.5001,729.7782 301.2761,730.0022 301.0001,730.0022 C300.7241,730.0022 300.5001,729.7782 300.5001,729.5022 L300.5001,720.4972 C300.5001,720.2212 300.7241,719.9972 301.0001,719.9972 C301.2761,719.9972 301.5001,720.2212 301.5001,720.4972 L301.5001,729.5022 Z M289.503,729.5022 C289.503,729.7782 289.279,730.0022 289.003,730.0022 C288.727,730.0022 288.503,729.7782 288.503,729.5022 L288.503,720.4972 C288.503,720.2212 288.727,719.9972 289.003,719.9972 C289.279,719.9972 289.503,720.2212 289.503,720.4972 L289.503,729.5022 Z M289.003,713.9847 C287.624,713.9847 286.502,712.8627 286.502,711.4827 C286.502,710.1037 287.624,708.9817 289.003,708.9817 C290.381,708.9817 291.503,710.1037 291.503,711.4827 C291.503,712.8627 290.381,713.9847 289.003,713.9847 Z M289.003,709.9827 C288.176,709.9827 287.502,710.6557 287.502,711.4827 C287.502,712.3107 288.176,712.9837 289.003,712.9837 C289.83,712.9837 290.503,712.3107 290.503,711.4827 C290.503,710.6557 289.83,709.9827 289.003,709.9827 Z" id="ico_colegios-empresas"></path>
        </g>
    </g>
</svg>