<?xml version="1.0" encoding="UTF-8" standalone="no"?>
<svg width="24px" height="24px" viewBox="0 0 24 24" version="1.1" xmlns="http://www.w3.org/2000/svg" xmlns:xlink="http://www.w3.org/1999/xlink">
    <!-- Generator: Sketch 42 (36781) - http://www.bohemiancoding.com/sketch -->
    <title>ico_casa</title>
    <desc>Created with Sketch.</desc>
    <defs>
        <polygon id="path-1" points="24 0.00055 24 8.9998 1.59580351e-05 8.9998 1.59580351e-05 0.00055"></polygon>
    </defs>
    <g id="BUSCADOR" stroke="none" stroke-width="1" fill="none" fill-rule="evenodd">
        <g id="assets" transform="translate(-1141.000000, -134.000000)">
            <g id="ico_casa" transform="translate(1141.000000, 134.000000)">
                <path d="M21.5002,9.4995 C21.2242,9.4995 21.0002,9.7235 21.0002,9.9995 L21.0002,22.4995 C21.0002,22.7745 20.7762,22.9995 20.5002,22.9995 L15.5002,22.9995 C15.2242,22.9995 15.0002,22.7745 15.0002,22.4995 L15.0002,17.4995 C15.0002,16.6725 14.3272,15.9995 13.5002,15.9995 L10.5002,15.9995 C9.6732,15.9995 9.0002,16.6725 9.0002,17.4995 L9.0002,22.4995 C9.0002,22.7745 8.7762,22.9995 8.5002,22.9995 L3.5002,22.9995 C3.2242,22.9995 3.0002,22.7745 3.0002,22.4995 L3.0002,9.9995 C3.0002,9.7235 2.7762,9.4995 2.5002,9.4995 C2.2242,9.4995 2.0002,9.7235 2.0002,9.9995 L2.0002,22.4995 C2.0002,23.3265 2.6732,23.9995 3.5002,23.9995 L8.5002,23.9995 C9.3272,23.9995 10.0002,23.3265 10.0002,22.4995 L10.0002,17.4995 C10.0002,17.2245 10.2242,16.9995 10.5002,16.9995 L13.5002,16.9995 C13.7762,16.9995 14.0002,17.2245 14.0002,17.4995 L14.0002,22.4995 C14.0002,23.3265 14.6732,23.9995 15.5002,23.9995 L20.5002,23.9995 C21.3272,23.9995 22.0002,23.3265 22.0002,22.4995 L22.0002,9.9995 C22.0002,9.7235 21.7762,9.4995 21.5002,9.4995" id="Fill-1" fill="#000000"></path>
                <g id="Group-5" transform="translate(0.000000, -0.000500)">
                    <mask id="mask-2" fill="white">
                        <use xlink:href="#path-1"></use>
                    </mask>
                    <g id="Clip-4"></g>
                    <path d="M23.7858,8.0898 L12.2858,0.0898 C12.1138,-0.0292 11.8868,-0.0292 11.7148,0.0898 L0.2148,8.0898 C-0.0122,8.2468 -0.0682,8.5588 0.0898,8.7848 C0.2478,9.0118 0.5588,9.0678 0.7858,8.9098 L11.9998,1.1098 L23.2148,8.9098 C23.3018,8.9708 23.4008,8.9998 23.4998,8.9998 C23.6578,8.9998 23.8138,8.9248 23.9108,8.7848 C24.0688,8.5588 24.0128,8.2468 23.7858,8.0898" id="Fill-3" fill="#000000" mask="url(#mask-2)"></path>
                </g>
                <path d="M12.0002,5.9995 C12.5512,5.9995 13.0002,6.4475 13.0002,6.9995 C13.0002,7.5515 12.5512,7.9995 12.0002,7.9995 C11.4492,7.9995 11.0002,7.5515 11.0002,6.9995 C11.0002,6.4475 11.4492,5.9995 12.0002,5.9995 M12.0002,8.9995 C13.1032,8.9995 14.0002,8.1025 14.0002,6.9995 C14.0002,5.8965 13.1032,4.9995 12.0002,4.9995 C10.8972,4.9995 10.0002,5.8965 10.0002,6.9995 C10.0002,8.1025 10.8972,8.9995 12.0002,8.9995" id="Fill-6" fill="#000000"></path>
            </g>
        </g>
    </g>
</svg>