<?xml version="1.0" encoding="UTF-8" standalone="no"?>
<svg width="24px" height="24px" viewBox="0 0 24 24" version="1.1" xmlns="http://www.w3.org/2000/svg" xmlns:xlink="http://www.w3.org/1999/xlink">
    <!-- Generator: Sketch 42 (36781) - http://www.bohemiancoding.com/sketch -->
    <title>Page 1</title>
    <desc>Created with Sketch.</desc>
    <defs></defs>
    <g id="Page-1" stroke="none" stroke-width="1" fill="none" fill-rule="evenodd">
        <g id="Perfil_colegio_MOBILE_2" transform="translate(-23.000000, -83.000000)" fill="#2D2D2D">
            <path d="M26,83 C24.346,83 23,84.346 23,86 L23,93 C23,94.654 24.346,96 26,96 L33,96 L33,98 C33,98.379 33.214,98.725 33.553,98.895 C33.694,98.965 33.848,99 34,99 C34.212,99 34.423,98.933 34.6,98.8 L38.6,95.8 C38.852,95.611 39,95.314 39,95 C39,94.686 38.852,94.389 38.6,94.2 L34.6,91.2 C34.296,90.972 33.891,90.937 33.553,91.105 C33.214,91.275 33,91.621 33,92 L33,94 L26,94 C25.449,94 25,93.552 25,93 L25,86 C25,85.448 25.449,85 26,85 L44,85 C44.551,85 45,85.448 45,86 L45,104 C45,104.552 44.551,105 44,105 L26,105 C25.449,105 25,104.552 25,104 L25,99 C25,98.447 24.552,98 24,98 C23.448,98 23,98.447 23,99 L23,104 C23,105.654 24.346,107 26,107 L44,107 C45.654,107 47,105.654 47,104 L47,86 C47,84.346 45.654,83 44,83 L26,83 Z" id="Page-1"></path>
        </g>
    </g>
</svg>