<?xml version="1.0" encoding="UTF-8" standalone="no"?>
<svg width="48px" height="48px" viewBox="0 0 48 48" version="1.1" xmlns="http://www.w3.org/2000/svg" xmlns:xlink="http://www.w3.org/1999/xlink">
    <!-- Generator: Sketch 42 (36781) - http://www.bohemiancoding.com/sketch -->
    <title>ico_home_colegio-empresa_monocromo</title>
    <desc>Created with Sketch.</desc>
    <defs></defs>
    <g id="Assets" stroke="none" stroke-width="1" fill="none" fill-rule="evenodd">
        <g id="assets" transform="translate(-552.000000, -986.000000)" fill="#2D2D2D">
            <path d="M599,1031.99995 C599.552,1031.99995 600,1032.44795 600,1032.99995 C600,1033.55195 599.552,1033.99995 599,1033.99995 L553,1033.99995 C552.448,1033.99995 552,1033.55195 552,1032.99995 C552,1032.44795 552.448,1031.99995 553,1031.99995 L599,1031.99995 Z M555,1028.99995 C555,1028.44795 555.448,1027.99995 556,1027.99995 L596,1027.99995 C596.552,1027.99995 597,1028.44795 597,1028.99995 C597,1029.55195 596.552,1029.99995 596,1029.99995 L556,1029.99995 C555.448,1029.99995 555,1029.55195 555,1028.99995 Z M558,1024.99995 C558,1024.44795 558.448,1023.99995 559,1023.99995 L593,1023.99995 C593.552,1023.99995 594,1024.44795 594,1024.99995 C594,1025.55195 593.552,1025.99995 593,1025.99995 L559,1025.99995 C558.448,1025.99995 558,1025.55195 558,1024.99995 Z M552.02,1003.09825 C552.017,1003.06425 552,1003.03425 552,1003.00025 C552,1002.96925 552.015,1002.94525 552.017,1002.91525 C552.023,1002.84625 552.038,1002.78225 552.058,1002.71625 C552.076,1002.65525 552.095,1002.59825 552.125,1002.54225 C552.153,1002.48725 552.189,1002.43825 552.229,1002.38825 C552.271,1002.33425 552.316,1002.28525 552.369,1002.24125 C552.392,1002.22225 552.404,1002.19625 552.429,1002.17925 L575.429,986.17925 C575.772,985.94025 576.228,985.94025 576.571,986.17925 L599.571,1002.17925 C599.596,1002.19625 599.608,1002.22225 599.631,1002.24125 C599.684,1002.28525 599.729,1002.33425 599.771,1002.38825 C599.811,1002.43825 599.847,1002.48725 599.875,1002.54325 C599.905,1002.59825 599.924,1002.65525 599.942,1002.71625 C599.962,1002.78225 599.977,1002.84625 599.983,1002.91525 C599.985,1002.94525 600,1002.96925 600,1003.00025 C600,1003.03425 599.984,1003.06425 599.98,1003.09725 C599.974,1003.16525 599.961,1003.22925 599.94,1003.29525 C599.92,1003.36125 599.894,1003.42025 599.86,1003.47925 C599.844,1003.50925 599.841,1003.54325 599.821,1003.57125 C599.807,1003.59225 599.782,1003.59925 599.767,1003.61825 C599.698,1003.70325 599.617,1003.77125 599.525,1003.83025 C599.49,1003.85225 599.461,1003.88025 599.424,1003.89825 C599.294,1003.95925 599.153,1004.00025 599,1004.00025 L553,1004.00025 C552.97,1004.00025 552.945,1003.98625 552.916,1003.98325 C552.847,1003.97725 552.782,1003.96325 552.715,1003.94225 C552.655,1003.92425 552.598,1003.90525 552.543,1003.87625 C552.487,1003.84625 552.438,1003.81125 552.388,1003.77125 C552.334,1003.72825 552.286,1003.68425 552.242,1003.63125 C552.223,1003.60825 552.196,1003.59525 552.179,1003.57125 C552.159,1003.54325 552.156,1003.50925 552.14,1003.47925 C552.106,1003.42025 552.08,1003.36125 552.06,1003.29525 C552.039,1003.22925 552.026,1003.16525 552.02,1003.09825 Z M576,988.21825 L556.188,1002.00025 L595.812,1002.00025 L576,988.21825 Z M562,1019.97655 C562,1020.52855 561.552,1020.97655 561,1020.97655 C560.448,1020.97655 560,1020.52855 560,1019.97655 L560,1007.99955 C560,1007.44755 560.448,1006.99955 561,1006.99955 C561.552,1006.99955 562,1007.44755 562,1007.99955 L562,1019.97655 Z M592,1019.97655 C592,1020.52855 591.552,1020.97655 591,1020.97655 C590.448,1020.97655 590,1020.52855 590,1019.97655 L590,1007.99955 C590,1007.44755 590.448,1006.99955 591,1006.99955 C591.552,1006.99955 592,1007.44755 592,1007.99955 L592,1019.97655 Z M577,1019.99995 C577,1020.55195 576.552,1020.99995 576,1020.99995 C575.448,1020.99995 575,1020.55195 575,1019.99995 L575,1008.02295 C575,1007.47095 575.448,1007.02295 576,1007.02295 C576.552,1007.02295 577,1007.47095 577,1008.02295 L577,1019.99995 Z M576,999.99995 C573.794,999.99995 572,998.20595 572,995.99995 C572,993.79395 573.794,991.99995 576,991.99995 C578.206,991.99995 580,993.79395 580,995.99995 C580,998.20595 578.206,999.99995 576,999.99995 Z M576,993.99995 C574.897,993.99995 574,994.89695 574,995.99995 C574,997.10295 574.897,997.99995 576,997.99995 C577.103,997.99995 578,997.10295 578,995.99995 C578,994.89695 577.103,993.99995 576,993.99995 Z" id="ico_home_colegio-empresa_monocromo"></path>
        </g>
    </g>
</svg>