<?xml version="1.0" encoding="UTF-8" standalone="no"?>
<svg width="16px" height="16px" viewBox="0 0 16 16" version="1.1" xmlns="http://www.w3.org/2000/svg" xmlns:xlink="http://www.w3.org/1999/xlink">
    <!-- Generator: Sketch 42 (36781) - http://www.bohemiancoding.com/sketch -->
    <title>ico_aspa</title>
    <desc>Created with Sketch.</desc>
    <defs></defs>
    <g id="BUSCADOR" stroke="none" stroke-width="1" fill="none" fill-rule="evenodd">
        <g id="assets" transform="translate(-1144.000000, -282.000000)" fill="#FF6C7E">
            <path d="M1153.41425,290.00025 L1159.70725,283.70725 C1160.09825,283.31625 1160.09825,282.68425 1159.70725,282.29325 C1159.31625,281.90225 1158.68425,281.90225 1158.29325,282.29325 L1152.00025,288.58625 L1145.70725,282.29325 C1145.31625,281.90225 1144.68425,281.90225 1144.29325,282.29325 C1143.90225,282.68425 1143.90225,283.31625 1144.29325,283.70725 L1150.58625,290.00025 L1144.29325,296.29325 C1143.90225,296.68425 1143.90225,297.31625 1144.29325,297.70725 C1144.48825,297.90225 1144.74425,298.00025 1145.00025,298.00025 C1145.25625,298.00025 1145.51225,297.90225 1145.70725,297.70725 L1152.00025,291.41425 L1158.29325,297.70725 C1158.48825,297.90225 1158.74425,298.00025 1159.00025,298.00025 C1159.25625,298.00025 1159.51225,297.90225 1159.70725,297.70725 C1160.09825,297.31625 1160.09825,296.68425 1159.70725,296.29325 L1153.41425,290.00025 Z" id="ico_aspa"></path>
        </g>
    </g>
</svg>