<?xml version="1.0" encoding="UTF-8" standalone="no"?>
<svg width="16px" height="24px" viewBox="0 0 16 24" version="1.1" xmlns="http://www.w3.org/2000/svg" xmlns:xlink="http://www.w3.org/1999/xlink">
    <!-- Generator: Sketch 42 (36781) - http://www.bohemiancoding.com/sketch -->
    <title>icon_mujer_selected</title>
    <desc>Created with Sketch.</desc>
    <defs></defs>
    <g id="Assets" stroke="none" stroke-width="1" fill="none" fill-rule="evenodd">
        <g id="assets" transform="translate(-136.000000, -566.000000)" fill="#61CFFF">
            <path d="M144.000962,574 C141.794962,574 140.000962,572.206 140.000962,570 C140.000962,567.794 141.794962,566 144.000962,566 C146.206962,566 148.000962,567.794 148.000962,570 C148.000962,572.206 146.206962,574 144.000962,574 Z M151.781662,587.6211 C152.070662,588.1111 152.074662,588.6991 151.792662,589.1921 C151.504662,589.6981 150.980662,590.0001 150.391662,590.0001 L137.610662,590.0001 C137.021662,590.0001 136.497662,589.6981 136.208662,589.1921 C135.926662,588.6991 135.930662,588.1111 136.219662,587.6211 L142.610662,576.7881 C142.901662,576.2951 143.421662,576.0001 144.000662,576.0001 C144.580662,576.0001 145.099662,576.2951 145.390662,576.7881 L151.781662,587.6211 Z" id="icon_mujer_selected"></path>
        </g>
    </g>
</svg>