<?xml version="1.0" encoding="UTF-8" standalone="no"?>
<svg width="24px" height="24px" viewBox="0 0 24 24" version="1.1" xmlns="http://www.w3.org/2000/svg" xmlns:xlink="http://www.w3.org/1999/xlink">
    <!-- Generator: Sketch 42 (36781) - http://www.bohemiancoding.com/sketch -->
    <title>ico_idioma</title>
    <desc>Created with Sketch.</desc>
    <defs></defs>
    <g id="BUSCADOR" stroke="none" stroke-width="1" fill="none" fill-rule="evenodd" stroke-linecap="round">
        <g id="assets" transform="translate(-132.000000, -134.000000)" stroke="#2D2D2D">
            <g id="ico_idioma" transform="translate(132.000000, 134.000000)">
                <path d="M17.5,12 C17.5,18.352 15.038,23.5 12,23.5 C8.962,23.5 6.5,18.352 6.5,12 C6.5,5.648 8.962,0.5 12,0.5 C15.038,0.5 17.5,5.648 17.5,12 Z" id="Stroke-1"></path>
                <path d="M3.0464,18.623 C5.1544,17.317 8.3814,16.481 12.0004,16.481 C14.5784,16.481 16.9584,16.906 18.8764,17.623 C20.1244,18.089 21.1244,19.043 21.7064,20.241 C21.7124,20.252 21.7174,20.263 21.7224,20.274" id="Stroke-3"></path>
                <path d="M20.9141,5.2959 C18.8061,6.6019 15.5781,7.4379 11.9601,7.4379 C8.3881,7.4379 5.1951,6.6229 3.0861,5.3449" id="Stroke-5"></path>
                <path d="M23.5,12 L0.5,12" id="Stroke-7"></path>
                <path d="M12,23.5 L12,0.5" id="Stroke-9"></path>
                <path d="M23.1714,23.1719 L21.4554,19.7389 C21.2464,19.3219 21.2704,18.8219 21.5324,18.4359 C22.9084,16.4009 23.6504,13.9009 23.4744,11.2209 C23.1094,5.6779 18.7004,1.1059 13.1734,0.5589 C5.9004,-0.1621 -0.1616,5.9009 0.5584,13.1739 C1.1054,18.7009 5.6784,23.1099 11.2204,23.4749 C13.9004,23.6509 16.4004,22.9089 18.4354,21.5319 C18.8224,21.2709 19.3214,21.2469 19.7394,21.4549 L23.1714,23.1719" id="Stroke-11"></path>
            </g>
        </g>
    </g>
</svg>