<?xml version="1.0" encoding="UTF-8" standalone="no"?>
<svg width="24px" height="24px" viewBox="0 0 24 24" version="1.1" xmlns="http://www.w3.org/2000/svg" xmlns:xlink="http://www.w3.org/1999/xlink">
    <!-- Generator: Sketch 42 (36781) - http://www.bohemiancoding.com/sketch -->
    <title>ico_dinero</title>
    <desc>Created with Sketch.</desc>
    <defs></defs>
    <g id="BUSCADOR" stroke="none" stroke-width="1" fill="none" fill-rule="evenodd">
        <g id="assets" transform="translate(-708.000000, -134.000000)" fill="#000000">
            <g id="ico_dinero" transform="translate(708.000000, 134.000000)">
                <path d="M12,23 C5.935,23 1,18.065 1,12 C1,5.935 5.935,1 12,1 C18.065,1 23,5.935 23,12 C23,18.065 18.065,23 12,23 M12,0 C18.617,0 24,5.383 24,12 C24,18.617 18.617,24 12,24 C5.383,24 0,18.617 0,12 C0,5.383 5.383,0 12,0 Z M12,6 C13.103,6 14,6.897 14,8 C14,8.276 14.224,8.5 14.5,8.5 C14.776,8.5 15,8.276 15,8 C15,6.514 13.911,5.285 12.49,5.05 C12.492,5.032 12.5,5.018 12.5,5 L12.5,3.469 C12.5,3.192 12.276,2.969 12,2.969 C11.724,2.969 11.5,3.192 11.5,3.469 L11.5,5 C11.5,5.018 11.508,5.032 11.51,5.05 C10.089,5.285 9,6.514 9,8 C9,10.24 10.428,11.383 11.688,12.391 C12.928,13.383 14,14.24 14,16 C14,17.103 13.103,18 12,18 C10.897,18 10,17.103 10,16 C10,15.724 9.776,15.5 9.5,15.5 C9.224,15.5 9,15.724 9,16 C9,17.484 10.086,18.712 11.504,18.95 C11.503,18.957 11.5,18.962 11.5,18.969 L11.5,20.5 C11.5,20.776 11.724,21 12,21 C12.276,21 12.5,20.776 12.5,20.5 L12.5,18.969 C12.5,18.962 12.497,18.957 12.496,18.95 C13.914,18.712 15,17.484 15,16 C15,13.76 13.572,12.617 12.312,11.609 C11.072,10.617 10,9.76 10,8 C10,6.897 10.897,6 12,6 Z" id="Combined-Shape"></path>
            </g>
        </g>
    </g>
</svg>