<?xml version="1.0" encoding="UTF-8"?>
<svg width="24px" height="32px" viewBox="0 0 24 32" version="1.1" xmlns="http://www.w3.org/2000/svg" xmlns:xlink="http://www.w3.org/1999/xlink">
    <!-- Generator: Sketch 44 (41411) - http://www.bohemiancoding.com/sketch -->
    <title>ico_CV</title>
    <desc>Created with Sketch.</desc>
    <defs></defs>
    <g id="PERFIL" stroke="none" stroke-width="1" fill="none" fill-rule="evenodd">
        <g id="Mi_perfil_AUXILIAR_imgperfil_hover" transform="translate(-1108.000000, -712.000000)" fill="#2D2D2D">
            <path d="M1112.001,717.499 C1112.001,716.121 1113.122,715 1114.5,715 C1115.878,715 1116.999,716.121 1116.999,717.499 C1116.999,718.877 1115.878,719.998 1114.5,719.998 C1113.122,719.998 1112.001,718.877 1112.001,717.499 L1112.001,717.499 Z M1114.5,721 C1115.853,721 1117.386,721 1117.948,722.681 C1118.124,723.204 1117.841,723.771 1117.317,723.946 C1117.212,723.981 1117.105,723.998 1117,723.998 C1116.582,723.998 1116.192,723.733 1116.052,723.315 C1115.975,723.086 1115.946,723 1114.5,723 C1113.075,723 1113.044,723.077 1112.93,723.366 C1112.727,723.879 1112.147,724.132 1111.632,723.928 C1111.119,723.725 1110.867,723.144 1111.07,722.63 C1111.715,721 1113.131,721 1114.5,721 Z M1114.998,717.499 C1114.998,717.774 1114.774,717.998 1114.499,717.998 C1114.224,717.998 1114,717.774 1114,717.499 C1114,717.224 1114.224,717 1114.499,717 C1114.774,717 1114.998,717.224 1114.998,717.499 Z M1129,712 C1130.654,712 1132,713.346 1132,715 L1132,741 C1132,742.654 1130.654,744 1129,744 L1111,744 C1109.346,744 1108,742.654 1108,741 L1108,715 C1108,713.346 1109.346,712 1111,712 L1129,712 Z M1130,741 L1130,715 C1130,714.448 1129.551,714 1129,714 L1120,714 L1120,725 C1120,725.553 1119.552,726 1119,726 L1110,726 L1110,741 C1110,741.552 1110.449,742 1111,742 L1129,742 C1129.551,742 1130,741.552 1130,741 Z M1127,718 C1127.552,718 1128,718.447 1128,719 C1128,719.553 1127.552,720 1127,720 L1123,720 C1122.448,720 1122,719.553 1122,719 C1122,718.447 1122.448,718 1123,718 L1127,718 Z M1127,734 C1127.552,734 1128,734.447 1128,735 C1128,735.553 1127.552,736 1127,736 L1113,736 C1112.448,736 1112,735.553 1112,735 C1112,734.447 1112.448,734 1113,734 L1127,734 Z M1127,730 C1127.552,730 1128,730.447 1128,731 C1128,731.553 1127.552,732 1127,732 L1113,732 C1112.448,732 1112,731.553 1112,731 C1112,730.447 1112.448,730 1113,730 L1127,730 Z M1123,738 C1123.552,738 1124,738.447 1124,739 C1124,739.553 1123.552,740 1123,740 L1113,740 C1112.448,740 1112,739.553 1112,739 C1112,738.447 1112.448,738 1113,738 L1123,738 Z M1125,724 L1123,724 C1122.448,724 1122,723.553 1122,723 C1122,722.447 1122.448,722 1123,722 L1125,722 C1125.552,722 1126,722.447 1126,723 C1126,723.553 1125.552,724 1125,724 Z" id="ico_CV"></path>
        </g>
    </g>
</svg>