<?xml version="1.0" encoding="UTF-8"?>
<svg width="48px" height="40px" viewBox="0 0 48 40" version="1.1" xmlns="http://www.w3.org/2000/svg" xmlns:xlink="http://www.w3.org/1999/xlink">
    <!-- Generator: Sketch 44 (41411) - http://www.bohemiancoding.com/sketch -->
    <title>ico_change</title>
    <desc>Created with Sketch.</desc>
    <defs></defs>
    <g id="PERFIL" stroke="none" stroke-width="1" fill="none" fill-rule="evenodd">
        <g id="Mi_perfil_AUXILIAR_imgperfil_hover" transform="translate(-336.000000, -344.000000)" fill="#61CFFF">
            <path d="M376.8687,363 L378.9997,359.803 L381.1317,363 L376.8687,363 Z M383.8317,363.445 C384.0367,363.752 384.0557,364.146 383.8817,364.472 C383.7077,364.797 383.3687,365 382.9997,365 L379.9517,365 C379.7077,369.965 377.6817,374.603 374.1417,378.142 C370.3647,381.919 365.3427,384 359.9997,384 C354.6577,384 349.6357,381.919 345.8577,378.142 C345.4677,377.751 345.4677,377.119 345.8577,376.728 C346.2487,376.337 346.8817,376.337 347.2717,376.728 C350.6717,380.127 355.1917,382 359.9997,382 C364.8077,382 369.3277,380.127 372.7277,376.728 C375.8897,373.566 377.7097,369.431 377.9517,365 L374.9997,365 C374.6317,365 374.2927,364.797 374.1187,364.472 C373.9447,364.146 373.9637,363.752 374.1677,363.445 L378.1677,357.445 C378.5387,356.889 379.4607,356.889 379.8317,357.445 L383.8317,363.445 Z M345.882,363.5283 C346.056,363.8533 346.037,364.2483 345.832,364.5543 L341.832,370.5543 C341.646,370.8333 341.334,371.0003 341,371.0003 C340.666,371.0003 340.354,370.8333 340.168,370.5543 L336.168,364.5543 C335.963,364.2483 335.944,363.8533 336.118,363.5283 C336.292,363.2033 336.631,363.0003 337,363.0003 L340.049,363.0003 C340.293,358.0343 342.318,353.3973 345.858,349.8583 C349.635,346.0803 354.658,344.0003 360,344.0003 C365.342,344.0003 370.365,346.0803 374.142,349.8583 C374.533,350.2483 374.533,350.8813 374.142,351.2723 C373.751,351.6623 373.119,351.6623 372.728,351.2723 C369.328,347.8723 364.808,346.0003 360,346.0003 C355.192,346.0003 350.672,347.8723 347.272,351.2723 C344.11,354.4343 342.291,358.5693 342.049,363.0003 L345,363.0003 C345.369,363.0003 345.708,363.2033 345.882,363.5283 Z M341,368.1973 L343.131,365.0003 L341.002,365.0003 L341,365.0003 L340.998,365.0003 L338.869,365.0003 L341,368.1973 Z" id="ico_change"></path>
        </g>
    </g>
</svg>