<?xml version="1.0" encoding="UTF-8" standalone="no"?>
<svg width="24px" height="24px" viewBox="0 0 24 24" version="1.1" xmlns="http://www.w3.org/2000/svg" xmlns:xlink="http://www.w3.org/1999/xlink">
    <!-- Generator: Sketch 42 (36781) - http://www.bohemiancoding.com/sketch -->
    <title>instagram</title>
    <desc>Created with Sketch.</desc>
    <defs></defs>
    <g id="BUSCADOR" stroke="none" stroke-width="1" fill="none" fill-rule="evenodd">
        <g id="assets" transform="translate(-420.000000, -566.000000)" fill="#2D2D2D">
            <path d="M432,566 C435.258545,566 435.667636,566.014182 436.947273,566.072 C438.224727,566.129818 439.097455,566.333818 439.86,566.629455 C440.649818,566.936 441.318545,567.346182 441.985091,568.014909 C442.653818,568.681455 443.064,569.350182 443.370545,570.14 C443.666182,570.902545 443.870182,571.775273 443.928,573.052727 C443.985818,574.332364 444,574.741455 444,578 C444,581.258545 443.985818,581.667636 443.928,582.947273 C443.870182,584.224727 443.666182,585.097455 443.370545,585.86 C443.064,586.649818 442.653818,587.318545 441.985091,587.985091 C441.318545,588.653818 440.649818,589.064 439.86,589.370545 C439.097455,589.666182 438.224727,589.870182 436.947273,589.928 C435.667636,589.985818 435.258545,590 432,590 C428.741455,590 428.332364,589.985818 427.052727,589.928 C425.775273,589.870182 424.902545,589.666182 424.14,589.370545 C423.350182,589.064 422.681455,588.653818 422.014909,587.985091 C421.346182,587.318545 420.936,586.649818 420.629455,585.86 C420.333818,585.097455 420.129818,584.224727 420.072,582.947273 C420.014182,581.667636 420,581.258545 420,578 C420,574.741455 420.014182,574.332364 420.072,573.052727 C420.129818,571.775273 420.333818,570.902545 420.629455,570.14 C420.936,569.350182 421.346182,568.681455 422.014909,568.014909 C422.681455,567.346182 423.350182,566.936 424.14,566.629455 C424.902545,566.333818 425.775273,566.129818 427.052727,566.072 C428.332364,566.014182 428.741455,566 432,566 Z M432,568.162182 C428.794909,568.162182 428.416364,568.174182 427.150909,568.232 C425.980364,568.285455 425.345455,568.480727 424.923273,568.645455 C424.362545,568.862545 423.963273,569.123273 423.543273,569.543273 C423.123273,569.963273 422.862545,570.362545 422.645455,570.923273 C422.480727,571.345455 422.285455,571.980364 422.232,573.150909 C422.174182,574.416364 422.162182,574.796 422.162182,578 C422.162182,581.205091 422.174182,581.583636 422.232,582.849091 C422.285455,584.019636 422.480727,584.654545 422.645455,585.076727 C422.862545,585.637455 423.123273,586.036727 423.543273,586.456727 C423.963273,586.876727 424.362545,587.137455 424.923273,587.354545 C425.345455,587.519273 425.980364,587.714545 427.150909,587.768 C428.416364,587.825818 428.794909,587.837818 432,587.837818 C435.205091,587.837818 435.583636,587.825818 436.849091,587.768 C438.019636,587.714545 438.654545,587.519273 439.076727,587.354545 C439.637455,587.137455 440.036727,586.876727 440.456727,586.456727 C440.876727,586.036727 441.137455,585.637455 441.354545,585.076727 C441.519273,584.654545 441.714545,584.019636 441.768,582.849091 C441.825818,581.583636 441.837818,581.205091 441.837818,578 C441.837818,574.796 441.825818,574.416364 441.768,573.150909 C441.714545,571.980364 441.519273,571.345455 441.354545,570.923273 C441.137455,570.362545 440.876727,569.963273 440.456727,569.543273 C440.036727,569.123273 439.637455,568.862545 439.076727,568.645455 C438.654545,568.480727 438.019636,568.285455 436.849091,568.232 C435.583636,568.174182 435.205091,568.162182 432,568.162182 Z M432,571.838545 C435.403636,571.838545 438.161455,574.596364 438.161455,578 C438.161455,581.403636 435.403636,584.161455 432,584.161455 C428.596364,584.161455 425.838545,581.403636 425.838545,578 C425.838545,574.596364 428.596364,571.838545 432,571.838545 Z M432,582.000364 C434.209091,582.000364 436.000364,580.209091 436.000364,578 C436.000364,575.790909 434.209091,573.999636 432,573.999636 C429.790909,573.999636 427.999636,575.790909 427.999636,578 C427.999636,580.209091 429.790909,582.000364 432,582.000364 Z M439.845164,571.594073 C439.845164,572.389345 439.200436,573.034073 438.406255,573.034073 C437.609891,573.034073 436.965164,572.389345 436.965164,571.594073 C436.965164,570.7988 437.609891,570.155164 438.406255,570.155164 C439.200436,570.155164 439.845164,570.7988 439.845164,571.594073 Z" id="instagram"></path>
        </g>
    </g>
</svg>