<svg width="208" height="112" viewBox="0 0 208 112" xmlns="http://www.w3.org/2000/svg"><title>41531914-1390-41F2-A577-28FBF292111B</title><g fill="none" fill-rule="evenodd"><path d="M160 56c0 30.928-25.072 56-56 56S48 86.928 48 56 73.072 0 104 0s56 25.072 56 56" fill="#61CFFF"/><path d="M20 65.967h8v-20h-8v20zm-7.998 0H12c-5.514 0-10-4.488-10-10 0-5.514 4.486-10 10-10h6v20h-5.998zm43.998-20a1 1 0 0 0 0-2H12c-6.618 0-12 5.382-12 12 0 6.616 5.382 12 12 12h44a1 1 0 0 0 0-2H30v-6h24a1 1 0 0 0 0-2H30v-4h24a1 1 0 0 0 0-2H30v-6h26zM195.443 59.214L180 65.48V46.452l15.444 6.266v6.496zm11.664-3.248c0-.104-.028-.204-.058-.302-.008-.026-.004-.05-.014-.074l-.002-.002a.954.954 0 0 0-.544-.546l-.004-.002-27.108-11c-.076-.032-.154-.032-.23-.044-.052-.008-.094-.03-.148-.03h-27a1 1 0 0 0 0 2h26v6h-24a1 1 0 0 0 0 2h24v4h-24a1 1 0 0 0 0 2h24v6h-26a1 1 0 0 0 0 2h27c.018 0 .032-.008.048-.008.11-.006.22-.022.33-.066l27.108-11c.044-.016.074-.05.112-.074.04-.02.07-.042.106-.068a.995.995 0 0 0 .33-.406c0-.002.002-.002.002-.002.01-.024.006-.048.014-.074.03-.098.058-.198.058-.302zM111.262 91.229c3.928-3.006 7.228-8.332 9.458-15.088 3.672 1.026 6.998 2.392 9.814 4.07-5.028 5.498-11.706 9.462-19.272 11.018zm-33.708-10.92c2.744-1.656 5.97-3.014 9.54-4.046 2.206 6.626 5.442 11.87 9.29 14.876-7.376-1.598-13.892-5.47-18.83-10.83zm18.83-59.514c-3.854 3.01-7.094 8.266-9.3 14.906-3.58-1.026-6.824-2.376-9.576-4.024 4.944-5.388 11.476-9.282 18.876-10.882zm8.536 51.176l.024-15.004h16.816c-.084 6.08-.914 11.784-2.322 16.756-4.508-1.096-9.436-1.694-14.518-1.752zm-.002 2c4.888.056 9.62.626 13.942 1.666-3.028 9.288-8.128 15.572-13.97 16.226l.028-17.892zm-2 .012l-.028 17.882c-5.824-.65-10.914-6.892-13.944-16.13 4.312-1.076 9.058-1.666 13.972-1.752zM86.014 56.967h16.93l-.024 15.016c-5.108.088-10.05.706-14.552 1.838-1.426-4.996-2.27-10.732-2.354-16.854zm16.956-17.012l-.024 15.012H86.014c.084-6.112.924-11.838 2.346-16.828 4.526 1.128 9.49 1.742 14.61 1.816zm.002-1.998c-4.926-.076-9.696-.658-14.034-1.73 3.048-9.312 8.186-15.586 14.062-16.17l-.028 17.9zm2 0L105 20.079c5.79.722 10.842 6.974 13.85 16.192-4.296 1.042-9.002 1.618-13.878 1.686zm-.002 2c5.072-.07 9.976-.676 14.46-1.774 1.414 4.978 2.246 10.692 2.33 16.784h-16.814l.024-15.01zm-28.828-6.76c2.954 1.818 6.466 3.292 10.336 4.408-1.502 5.17-2.376 11.08-2.462 17.362H68.052c.228-8.24 3.206-15.804 8.09-21.77zm-8.09 23.77h15.964c.086 6.294.964 12.214 2.472 17.394-3.862 1.122-7.356 2.608-10.3 4.432-4.914-5.974-7.908-13.56-8.136-21.826zm63.842 21.72c-3.016-1.844-6.606-3.334-10.57-4.448 1.486-5.15 2.35-11.028 2.434-17.272h16.192a35.824 35.824 0 0 1-8.056 21.72zm8.056-23.72h-16.192c-.086-6.258-.952-12.146-2.442-17.302 3.954-1.122 7.528-2.624 10.536-4.476 4.888 5.968 7.868 13.534 8.098 21.778zm-9.462-23.296c-2.806 1.684-6.114 3.058-9.778 4.092-2.23-6.744-5.526-12.058-9.448-15.06 7.542 1.552 14.204 5.496 19.226 10.968zm-26.486-13.704H104c-.026 0-.048.004-.074.004-.012 0-.026-.004-.04-.004-.04 0-.08.012-.122.012C82.92 18.107 66 35.093 66 55.967s16.92 37.858 37.764 37.988c.04 0 .082.012.122.012h.002c.014 0 .026-.004.038-.004.026 0 .048.004.074.004 20.954 0 38-17.048 38-38s-17.044-37.998-37.998-38z" fill="#2D2D2D"/></g></svg>