<svg width="106" height="38" viewBox="0 0 106 38" xmlns="http://www.w3.org/2000/svg"><title>F63C4239-6D34-4DFE-AF98-42F4640C91BC</title><g fill="#2D2D2D" fill-rule="evenodd"><path d="M10 24h4V14h-4v10zm-3.999 0H6c-2.757 0-5-2.244-5-5 0-2.757 2.243-5 5-5h3v10H6.001zM28 14a.5.5 0 0 0 0-1H6c-3.309 0-6 2.691-6 6 0 3.308 2.691 6 6 6h22a.5.5 0 0 0 0-1H15v-3h12a.5.5 0 0 0 0-1H15v-2h12a.5.5 0 0 0 0-1H15v-3h13zM99.222 20.624L91.5 23.757v-9.514l7.722 3.133v3.248zM105.054 19a.518.518 0 0 0-.029-.151c-.004-.013-.002-.025-.007-.037l-.001-.001a.477.477 0 0 0-.272-.273l-.002-.001-13.554-5.5c-.038-.016-.077-.016-.115-.022-.026-.004-.047-.015-.074-.015H77.5a.5.5 0 0 0 0 1h13v3h-12a.5.5 0 0 0 0 1h12v2h-12a.5.5 0 0 0 0 1h12v3h-13a.5.5 0 0 0 0 1H91c.009 0 .016-.004.024-.004a.51.51 0 0 0 .165-.033l13.554-5.5c.022-.008.037-.025.056-.037.02-.01.035-.021.053-.034a.498.498 0 0 0 .165-.203l.001-.001c.005-.012.003-.024.007-.037a.518.518 0 0 0 .029-.151zM56.131 36.631c1.964-1.503 3.614-4.166 4.729-7.544 1.836.513 3.499 1.196 4.907 2.035-2.514 2.749-5.853 4.731-9.636 5.509zm-16.854-5.46c1.372-.828 2.985-1.507 4.77-2.023 1.103 3.313 2.721 5.935 4.645 7.438a17.986 17.986 0 0 1-9.415-5.415zm9.415-29.757c-1.927 1.505-3.547 4.133-4.65 7.453-1.79-.513-3.412-1.188-4.788-2.012 2.472-2.694 5.738-4.641 9.438-5.441zm4.268 25.588l.012-7.502h8.408c-.042 3.04-.457 5.892-1.161 8.378-2.254-.548-4.718-.847-7.259-.876zm-.001 1c2.444.028 4.81.313 6.971.833-1.514 4.644-4.064 7.786-6.985 8.113l.014-8.946zm-1 .006l-.014 8.941c-2.912-.325-5.457-3.446-6.972-8.065 2.156-.538 4.529-.833 6.986-.876zM43.507 19.5h8.465l-.012 7.508c-2.554.044-5.025.353-7.276.919-.713-2.498-1.135-5.366-1.177-8.427zm8.478-8.506l-.012 7.506h-8.466c.042-3.056.462-5.919 1.173-8.414 2.263.564 4.745.871 7.305.908zm.001-.999c-2.463-.038-4.848-.329-7.017-.865C46.493 4.474 49.062 1.337 52 1.045l-.014 8.95zm1 0L53 1.056c2.895.361 5.421 3.487 6.925 8.096-2.148.521-4.501.809-6.939.843zm-.001 1c2.536-.035 4.988-.338 7.23-.887.707 2.489 1.123 5.346 1.165 8.392h-8.407l.012-7.505zm-14.414-3.38c1.477.909 3.233 1.646 5.168 2.204-.751 2.585-1.188 5.54-1.231 8.681h-7.982a17.913 17.913 0 0 1 4.045-10.885zM34.526 19.5h7.982c.043 3.147.482 6.107 1.236 8.697-1.931.561-3.678 1.304-5.15 2.216A17.901 17.901 0 0 1 34.526 19.5zm31.921 10.86c-1.508-.922-3.303-1.667-5.285-2.224.743-2.575 1.175-5.514 1.217-8.636h8.096a17.912 17.912 0 0 1-4.028 10.86zm4.028-11.86h-8.096c-.043-3.129-.476-6.073-1.221-8.651 1.977-.561 3.764-1.312 5.268-2.238A17.92 17.92 0 0 1 70.475 18.5zM65.744 6.852c-1.403.842-3.057 1.529-4.889 2.046-1.115-3.372-2.763-6.029-4.724-7.53 3.771.776 7.102 2.748 9.613 5.484zM52.501 0H52.5l-.037.002-.02-.002c-.02 0-.04.006-.061.006C41.96.07 33.5 8.563 33.5 19s8.46 18.929 18.882 18.994c.02 0 .041.006.061.006h.001l.019-.002.037.002c10.477 0 19-8.524 19-19S62.978.001 52.501 0z"/></g></svg>