<svg width="130" height="120" viewBox="0 0 130 120" xmlns="http://www.w3.org/2000/svg"><title>DDB244D1-B33E-4EF5-9535-7F36FE7D017D</title><g fill="none" fill-rule="evenodd"><path d="M101 58.993c0 19.882-16.118 36-36 36s-36-16.118-36-36 16.118-36 36-36 36 16.118 36 36z" fill="#61CFFF"/><path d="M75.518 70.715c.872-3.179 1.394-6.816 1.47-10.723h9.987a21.907 21.907 0 0 1-5.55 13.616c-1.778-1.185-3.764-2.154-5.907-2.893zm-.584 1.91a23.957 23.957 0 0 1 5.068 2.44 21.995 21.995 0 0 1-9.353 5.19c1.729-1.808 3.197-4.43 4.285-7.63zm-19.867 0c1.088 3.201 2.555 5.822 4.284 7.63a21.991 21.991 0 0 1-9.352-5.19 23.959 23.959 0 0 1 5.068-2.44zm0-27.265a23.959 23.959 0 0 1-5.068-2.439 21.98 21.98 0 0 1 9.352-5.19c-1.73 1.807-3.196 4.428-4.284 7.63zm19.867 0c-1.088-3.2-2.556-5.822-4.285-7.629A21.975 21.975 0 0 1 80 42.921a24.023 24.023 0 0 1-5.067 2.44zM66 46.958v-9.85c2.825.65 5.343 4.013 6.994 8.847-2.21.59-4.561.93-6.994 1.003zm0 11.034v-9.034a32.796 32.796 0 0 0 7.578-1.09c.824 3.013 1.332 6.468 1.41 10.124H66zm0 11.036v-9.036h8.989c-.08 3.657-.587 7.112-1.411 10.125A32.788 32.788 0 0 0 66 69.028zm0 2a30.82 30.82 0 0 1 6.994 1.001c-1.651 4.834-4.17 8.198-6.994 8.848v-9.85zm-2 0v9.85c-2.823-.65-5.342-4.015-6.992-8.849A30.802 30.802 0 0 1 64 71.027zm0-11.036v9.036c-2.632.075-5.18.444-7.576 1.09-.825-3.014-1.333-6.469-1.412-10.126H64zm0-11.034v9.034h-8.988c.079-3.656.587-7.11 1.412-10.125A32.771 32.771 0 0 0 64 48.958zm0-2a30.802 30.802 0 0 1-6.992-1.002c1.65-4.835 4.169-8.199 6.992-8.848v9.85zm22.975 11.034h-9.986c-.077-3.906-.6-7.544-1.471-10.722 2.143-.74 4.129-1.709 5.907-2.893a21.902 21.902 0 0 1 5.55 13.615zm-38.4-13.615c1.778 1.185 3.765 2.154 5.908 2.893-.872 3.178-1.394 6.816-1.47 10.722h-9.987a21.899 21.899 0 0 1 5.55-13.615zm-5.55 15.615h9.988c.076 3.907.598 7.544 1.47 10.722-2.143.74-4.13 1.71-5.907 2.894a21.901 21.901 0 0 1-5.55-13.616zm39.407 15.471C86.498 71.161 89 65.365 89 58.993c0-6.382-2.508-12.185-6.585-16.489-.004-.006-.004-.015-.01-.02-.024-.035-.06-.053-.088-.082-4.371-4.56-10.516-7.41-17.317-7.41-6.808 0-12.96 2.855-17.331 7.425-.023.025-.053.04-.073.067-.004.005-.004.012-.008.018C43.51 46.805 41 52.61 41 58.992c0 6.38 2.508 12.183 6.583 16.486.005.008.006.016.01.024.029.038.069.06.1.091 4.37 4.556 10.512 7.4 17.307 7.4 6.792 0 12.929-2.84 17.299-7.39.035-.036.083-.055.114-.097.009-.014.01-.029.019-.043zM13 64.993h4v-12h-4v12zm-11-6c0-3.309 2.691-6 6-6h3v12H8c-3.309 0-6-2.692-6-6zm33-6a1 1 0 0 0 0-2H8c-4.411 0-8 3.589-8 8s3.589 8 8 8h27a1 1 0 0 0 0-2H19v-3h14a1 1 0 0 0 0-2H19v-2h14a1 1 0 0 0 0-2H19v-3h16zM113 53.486l8.04 3.31c-.014.066-.04.128-.04.197v4c0 .069.026.13.039.196L113 64.499V53.487zm16.998 5.507a.969.969 0 0 0-.058-.302c-.008-.026-.004-.053-.015-.08l-.001-.001a.996.996 0 0 0-.54-.54l-.003-.002-16.991-6.996-.001-.001-.008-.003c-.054-.022-.11-.02-.164-.031-.072-.017-.14-.044-.217-.044H95a1 1 0 1 0 0 2h16v3H97a1 1 0 1 0 0 2h14v2H97a1 1 0 1 0 0 2h14v3H95a1 1 0 1 0 0 2h17c.127 0 .256-.025.381-.075l.008-.003.002-.001 16.99-6.996c.02-.01.033-.026.053-.036a.939.939 0 0 0 .222-.15c.026-.021.052-.04.074-.065a.958.958 0 0 0 .187-.281l.007-.01.001-.002c.011-.026.007-.053.015-.08a.974.974 0 0 0 .058-.301zM12.115 33.784l8.111 4.526c.314.175.588.186.824.034s.434-.371.593-.657l2.043-3.661a.87.87 0 0 0 .094-.655.79.79 0 0 0-.402-.514.705.705 0 0 0-.604-.038.891.891 0 0 0-.497.42l-1.797 3.22-2.763-1.542 1.573-2.82a.838.838 0 0 0 .09-.647.78.78 0 0 0-.392-.5.726.726 0 0 0-.636-.046.883.883 0 0 0-.486.4l-1.573 2.818-2.722-1.52 1.72-3.08a.904.904 0 0 0 .107-.647.728.728 0 0 0-.374-.5.8.8 0 0 0-.642-.067.858.858 0 0 0-.515.42l-2.089 3.744a.93.93 0 0 0-.088.758c.081.257.222.44.425.554M29.493 17.392c-.067.418-.334.833-.8 1.245l-1.508 1.329-2.125-2.41 1.436-1.266c.31-.272.591-.458.848-.558.256-.1.49-.14.703-.124.212.017.404.08.576.188.173.108.326.237.458.388.342.387.48.79.412 1.208m5.572 2.776a.422.422 0 0 0-.207-.091 122.47 122.47 0 0 0-2.109-.62c-.693-.196-1.396-.403-2.108-.62.42-.61.618-1.241.596-1.896-.023-.655-.306-1.292-.85-1.91a4.006 4.006 0 0 0-.922-.77 2.654 2.654 0 0 0-1.154-.374c-.42-.037-.868.028-1.346.196-.478.168-.978.483-1.5.943L23.4 16.848a.926.926 0 0 0-.322.663.91.91 0 0 0 .227.687l6.29 7.132a.798.798 0 0 0 .583.278.833.833 0 0 0 .613-.214.864.864 0 0 0 .301-.603.794.794 0 0 0-.19-.612l-2.66-3.015 1.08-.952 5.005 1.536c.286.085.552.019.797-.197.158-.14.256-.335.295-.587a.763.763 0 0 0-.184-.65 1.093 1.093 0 0 0-.17-.146M45.833 8.443c.516.65 1.03 1.305 1.545 1.966l-2.555.983c-.062-.835-.122-1.66-.18-2.474a40.891 40.891 0 0 0-.262-2.51c.452.707.937 1.386 1.452 2.035m-2.521 6.802c.018.061.034.112.049.151a.721.721 0 0 0 .462.45c.22.073.444.066.67-.02a.947.947 0 0 0 .394-.322.734.734 0 0 0 .158-.536l-.135-1.982 3.442-1.324 1.023 1.251c.201.228.392.403.575.525.182.122.406.132.673.03a.957.957 0 0 0 .518-.437.728.728 0 0 0 .033-.64 1.396 1.396 0 0 0-.064-.145.303.303 0 0 0-.088-.119l-6.248-7.65a2.1 2.1 0 0 0-.591-.502c-.208-.113-.454-.114-.74-.004-.285.11-.469.277-.553.501a1.82 1.82 0 0 0-.095.765l.488 9.867c.002.033.011.08.029.141M61.04 5.292c.233.222.498.403.797.543.298.142.607.264.926.367.32.104.636.202.949.295.313.093.602.2.87.32.17.08.346.217.524.408.178.19.272.498.282.919.012.528-.135.937-.439 1.229-.305.292-.773.445-1.407.46a4.004 4.004 0 0 1-.84-.06 4.613 4.613 0 0 1-.645-.168l-.494-.17a1.135 1.135 0 0 0-.39-.07.752.752 0 0 0-.57.258.797.797 0 0 0-.218.567c.007.243.125.446.355.609.23.164.508.295.831.393.325.098.67.166 1.035.205.364.04.684.056.959.05a4.697 4.697 0 0 0 1.466-.256c.45-.158.837-.385 1.162-.683.326-.298.576-.657.752-1.078.175-.421.257-.9.245-1.438-.013-.464-.09-.858-.234-1.182A2.46 2.46 0 0 0 66.39 6a3.137 3.137 0 0 0-.787-.536 8.407 8.407 0 0 0-.918-.374c-.32-.11-.639-.21-.957-.303a5.466 5.466 0 0 1-.879-.336 2.708 2.708 0 0 1-.264-.144 1.007 1.007 0 0 1-.258-.24 1.366 1.366 0 0 1-.206-.375 1.634 1.634 0 0 1-.093-.551 1.64 1.64 0 0 1 .126-.724c.09-.197.216-.353.377-.467.16-.115.346-.198.556-.251a3.01 3.01 0 0 1 .647-.086c.264-.006.488.01.675.048.184.038.351.085.5.139.15.055.288.102.415.14.129.04.26.058.398.055.275-.006.486-.09.636-.252a.775.775 0 0 0 .215-.56.754.754 0 0 0-.354-.632 2.609 2.609 0 0 0-.825-.361 5.486 5.486 0 0 0-.977-.16 8.897 8.897 0 0 0-.815-.028c-1.054.024-1.883.326-2.487.904-.605.578-.896 1.364-.873 2.355.01.474.09.876.233 1.205.145.329.334.604.566.826M77.46 12.896a.907.907 0 0 0 .68-.021c.222-.094.37-.241.44-.44l2.192-6.207.547 4.96a.833.833 0 0 0 .198.463.977.977 0 0 0 .416.273c.169.06.334.076.494.049a.829.829 0 0 0 .444-.238l3.556-3.51-2.192 6.207a.756.756 0 0 0 .059.617c.11.212.279.358.508.439a.834.834 0 0 0 .648-.031.76.76 0 0 0 .426-.445l3.262-9.237a.803.803 0 0 0-.043-.661.908.908 0 0 0-.523-.445 1.192 1.192 0 0 0-.514-.064.836.836 0 0 0-.485.232L82.759 9.63l-.757-6.744c-.057-.378-.28-.636-.667-.773a.892.892 0 0 0-.693.015.815.815 0 0 0-.442.49l-3.261 9.237a.779.779 0 0 0 .037.608.799.799 0 0 0 .485.432M96.855 23.364c.436.381.895.65 1.373.808a3.4 3.4 0 0 0 1.419.166 3.454 3.454 0 0 0 1.36-.442c.44-.247.843-.58 1.21-1.003l4.415-5.07a.812.812 0 0 0 .2-.626.886.886 0 0 0-.317-.612.816.816 0 0 0-.627-.21.836.836 0 0 0-.58.293l-4.417 5.071c-.436.501-.913.804-1.428.907-.516.103-1.03-.068-1.538-.51-.517-.452-.76-.939-.73-1.465.032-.525.265-1.039.702-1.54l4.416-5.072a.817.817 0 0 0 .21-.625.833.833 0 0 0-.292-.58.874.874 0 0 0-.64-.23.813.813 0 0 0-.59.292l-4.418 5.072a4.71 4.71 0 0 0-.832 1.331 3.408 3.408 0 0 0-.263 1.397c.013.466.132.926.353 1.378.223.452.56.875 1.014 1.27M106.377 33.062c-.036.28-.02.587.047.919.066.33.169.668.307 1.008.138.34.274.629.41.868.259.459.565.85.918 1.172.351.322.735.556 1.151.702.416.146.852.197 1.305.153.454-.045.915-.2 1.383-.465.404-.228.714-.483.931-.763.217-.281.366-.574.447-.881a3.12 3.12 0 0 0 .1-.947 8.411 8.411 0 0 0-.103-.987 23.54 23.54 0 0 0-.186-.986 5.462 5.462 0 0 1-.118-.933 2.339 2.339 0 0 1 .002-.301.965.965 0 0 1 .089-.341c.052-.121.129-.241.232-.36.103-.118.251-.232.443-.341.248-.141.48-.217.697-.231.216-.014.414.024.591.11.176.089.337.213.483.374.145.16.272.336.382.529a3.07 3.07 0 0 1 .39 1.124c.022.158.046.302.072.432.026.13.072.256.14.376.135.238.309.385.522.44a.773.773 0 0 0 .595-.072.756.756 0 0 0 .39-.612 2.6 2.6 0 0 0-.071-.897 5.471 5.471 0 0 0-.32-.936 9.214 9.214 0 0 0-.361-.733c-.519-.918-1.177-1.506-1.972-1.765-.795-.26-1.625-.145-2.487.344-.414.233-.731.492-.952.775a2.524 2.524 0 0 0-.462.888c-.085.309-.12.629-.102.959.016.329.054.659.114.989.059.33.123.655.188.975.067.32.11.627.129.919.01.188-.027.406-.111.654s-.311.475-.677.683c-.46.26-.89.325-1.291.194-.401-.131-.758-.471-1.069-1.022a4.01 4.01 0 0 1-.344-.77 4.52 4.52 0 0 1-.157-.646l-.084-.517a1.146 1.146 0 0 0-.122-.376.759.759 0 0 0-.498-.382.802.802 0 0 0-.602.077c-.211.12-.335.319-.369.6M21.99 83.415a.857.857 0 0 0-.073-.66.854.854 0 0 0-.506-.431.78.78 0 0 0-.629.047l-8.668 4.595a.783.783 0 0 0-.385.49.835.835 0 0 0 .065.664.838.838 0 0 0 .513.427c.227.07.435.056.621-.043l8.67-4.595a.78.78 0 0 0 .391-.494M30.192 94.498a.787.787 0 0 0-.616.203l-5.24 4.728c.072-.236.18-.564.325-.986.145-.422.31-.893.493-1.415a335.547 335.547 0 0 0 1.131-3.258l.482-1.404a56.6 56.6 0 0 0 .323-.963.88.88 0 0 0 .015-.504 1.069 1.069 0 0 0-.245-.461c-.184-.203-.395-.311-.633-.323a.855.855 0 0 0-.639.236l-7.227 6.518a.82.82 0 0 0-.27.575.812.812 0 0 0 .22.62.862.862 0 0 0 .607.296.786.786 0 0 0 .61-.198l5.228-4.717-2.755 8.027a.931.931 0 0 0-.003.492c.044.174.122.324.235.449a.905.905 0 0 0 .644.324.848.848 0 0 0 .64-.224l7.225-6.52a.81.81 0 0 0 .277-.58.831.831 0 0 0-.226-.615.88.88 0 0 0-.6-.3M50.212 106.692a5.586 5.586 0 0 0-.855-.499 8.503 8.503 0 0 0-.751-.318c-.994-.356-1.876-.371-2.647-.047-.771.323-1.324.952-1.658 1.885-.16.448-.231.851-.214 1.209.018.36.095.684.232.974.138.29.32.555.549.793.228.238.473.463.734.674.26.211.52.416.78.615.259.199.492.402.697.61.13.137.245.327.343.569.099.242.077.562-.065.959-.178.497-.461.827-.85.99-.39.164-.881.139-1.478-.074a4.02 4.02 0 0 1-.762-.357 4.686 4.686 0 0 1-.543-.387l-.4-.336a1.132 1.132 0 0 0-.34-.205.757.757 0 0 0-.626.036.795.795 0 0 0-.404.452c-.082.228-.045.46.112.695.157.236.369.457.637.665.267.207.564.395.89.562.327.168.62.297.878.389.497.178.984.274 1.46.288.477.013.92-.061 1.332-.222.41-.161.773-.407 1.087-.737.314-.33.562-.749.743-1.256.156-.437.224-.832.205-1.187a2.468 2.468 0 0 0-.237-.959 3.153 3.153 0 0 0-.543-.782 8.53 8.53 0 0 0-.724-.679c-.26-.216-.52-.424-.785-.625a5.382 5.382 0 0 1-.7-.628 2.563 2.563 0 0 1-.195-.229 1.01 1.01 0 0 1-.156-.317 1.423 1.423 0 0 1-.058-.423c0-.158.037-.34.112-.549.096-.268.22-.478.376-.63.156-.151.328-.252.52-.302a1.64 1.64 0 0 1 .609-.034c.214.026.426.077.634.151a3.072 3.072 0 0 1 1.03.595c.12.105.233.198.338.28.105.083.222.147.35.194.26.092.488.089.685-.008a.775.775 0 0 0 .402-.444.758.758 0 0 0-.104-.719 2.6 2.6 0 0 0-.64-.632M63.945 109.2a4.145 4.145 0 0 0-.947-.401 5.313 5.313 0 0 0-1.12-.2c-.652-.046-1.222.01-1.71.17a3.139 3.139 0 0 0-1.235.737c-.336.33-.598.742-.787 1.235a5.788 5.788 0 0 0-.35 1.657l-.234 3.25a5.733 5.733 0 0 0 .108 1.698c.116.51.317.955.602 1.33.285.375.657.676 1.117.905.459.228 1.015.366 1.667.414.389.027.769.016 1.138-.037a4.42 4.42 0 0 0 .993-.254c.294-.116.532-.26.714-.433.18-.172.28-.362.295-.573a.699.699 0 0 0-.191-.537.804.804 0 0 0-.56-.263.67.67 0 0 0-.345.047c-.082.04-.184.095-.305.16l-.082.04a2.557 2.557 0 0 1-1.467.325c-.4-.03-.733-.112-.998-.248a1.586 1.586 0 0 1-.626-.552 2.014 2.014 0 0 1-.298-.83 5.081 5.081 0 0 1-.026-1.066l.235-3.251c.028-.39.087-.74.179-1.05.09-.31.228-.571.413-.78.184-.208.417-.36.699-.457.282-.096.622-.13 1.023-.1.536.039 1.004.22 1.404.545l.075.053c.11.082.204.15.28.203a.667.667 0 0 0 .334.095.8.8 0 0 0 .592-.18.718.718 0 0 0 .267-.52c.015-.198-.056-.397-.211-.594a2.332 2.332 0 0 0-.643-.538M78.836 107.698a.772.772 0 0 0-.375-.512.86.86 0 0 0-.646-.114.86.86 0 0 0-.546.366.77.77 0 0 0-.136.619l.842 3.995-3.763.792-.842-3.994a.783.783 0 0 0-.367-.513.858.858 0 0 0-.654-.113.85.85 0 0 0-.553.368.774.774 0 0 0-.13.617l2.02 9.585a.8.8 0 0 0 .37.52c.199.13.418.17.656.12a.836.836 0 0 0 .552-.375.807.807 0 0 0 .127-.625l-.843-3.994 3.763-.793.84 3.994a.796.796 0 0 0 .378.52c.205.129.42.17.649.122a.846.846 0 0 0 .552-.375.816.816 0 0 0 .127-.625l-2.021-9.585zM94.274 109.906c-.084.57-.444 1.03-1.082 1.382-.647.356-1.23.417-1.753.18-.52-.237-.96-.678-1.317-1.325l-1.574-2.855c-.356-.647-.503-1.246-.44-1.8.063-.551.437-1.016 1.12-1.393.684-.376 1.276-.444 1.776-.202.501.242.93.687 1.287 1.333l1.573 2.855c.356.647.493 1.255.41 1.825m1.114-2.665l-1.573-2.856a5.67 5.67 0 0 0-.943-1.268 3.571 3.571 0 0 0-1.226-.815 3.239 3.239 0 0 0-1.48-.196c-.536.048-1.107.239-1.717.575-.61.336-1.077.718-1.403 1.144a3.22 3.22 0 0 0-.625 1.356 3.54 3.54 0 0 0 .035 1.472c.114.503.303.995.568 1.476l1.573 2.854c.276.499.606.929.99 1.288a3.7 3.7 0 0 0 1.268.792c.46.169.955.23 1.484.186.53-.045 1.077-.223 1.64-.533.564-.311 1.005-.678 1.326-1.102a3.45 3.45 0 0 0 .637-1.354c.103-.478.105-.976.007-1.494a5.137 5.137 0 0 0-.56-1.525M106.71 101.036c-.517.526-1.06.75-1.627.674-.567-.077-1.114-.375-1.641-.893l-2.324-2.286c-.526-.518-.84-1.051-.936-1.6-.098-.545.127-1.098.675-1.655.547-.555 1.095-.79 1.644-.701.55.089 1.087.393 1.613.91l2.325 2.286c.526.518.83 1.062.914 1.632.083.57-.131 1.114-.642 1.633m.948-4.506l-2.324-2.286a5.595 5.595 0 0 0-1.267-.946 3.552 3.552 0 0 0-1.407-.431 3.234 3.234 0 0 0-1.475.236c-.498.199-.992.545-1.48 1.04-.488.498-.827.997-1.017 1.498-.19.5-.26.995-.212 1.479.048.484.2.95.454 1.4.254.45.576.867.967 1.25l2.324 2.287c.405.4.844.717 1.316.953.472.234.952.367 1.442.396.489.029.98-.053 1.474-.247s.968-.52 1.419-.98c.45-.458.77-.937.956-1.434.187-.497.26-.99.223-1.48a3.715 3.715 0 0 0-.42-1.433 5.148 5.148 0 0 0-.973-1.302M118.605 85.355a.732.732 0 0 0-.615-.049.85.85 0 0 0-.483.403l-1.77 3.216-7.777-4.279a.784.784 0 0 0-.627-.057.857.857 0 0 0-.513.423.854.854 0 0 0-.083.66c.062.226.19.393.385.5l8.386 4.614a.834.834 0 0 0 .7.06.95.95 0 0 0 .549-.457l2.15-3.91a.838.838 0 0 0 .086-.63.755.755 0 0 0-.388-.494" fill="#2D2D2D"/></g></svg>