<?xml version="1.0" encoding="UTF-8" standalone="no"?>
<svg width="24px" height="20px" viewBox="0 0 24 20" version="1.1" xmlns="http://www.w3.org/2000/svg" xmlns:xlink="http://www.w3.org/1999/xlink">
    <!-- Generator: Sketch 42 (36781) - http://www.bohemiancoding.com/sketch -->
    <title>Twitter</title>
    <desc>Created with Sketch.</desc>
    <defs></defs>
    <g id="BUSCADOR" stroke="none" stroke-width="1" fill="none" fill-rule="evenodd">
        <g id="assets" transform="translate(-132.000000, -569.000000)" fill="#2D2D2D">
            <path d="M153.543,573.97 C153.553,574.187 153.558,574.404 153.558,574.622 C153.558,581.279 148.605,588.954 139.548,588.954 C136.768,588.954 134.179,588.12 132,586.691 C132.385,586.738 132.777,586.762 133.175,586.762 C135.481,586.762 137.605,585.956 139.29,584.606 C137.135,584.565 135.316,583.109 134.69,581.107 C134.99,581.165 135.299,581.198 135.616,581.198 C136.065,581.198 136.501,581.136 136.914,581.021 C134.661,580.558 132.964,578.522 132.964,576.081 C132.964,576.06 132.964,576.039 132.965,576.018 C133.628,576.396 134.388,576.622 135.194,576.648 C133.873,575.744 133.004,574.202 133.004,572.455 C133.004,571.532 133.247,570.667 133.671,569.923 C136.1,572.97 139.728,574.976 143.819,575.186 C143.735,574.817 143.692,574.433 143.692,574.037 C143.692,571.256 145.897,569 148.616,569 C150.032,569 151.312,569.613 152.21,570.591 C153.332,570.366 154.386,569.947 155.337,569.369 C154.97,570.545 154.189,571.532 153.172,572.156 C154.168,572.034 155.117,571.763 156,571.363 C155.34,572.372 154.505,573.26 153.543,573.97" id="Twitter"></path>
        </g>
    </g>
</svg>