<?xml version="1.0" encoding="UTF-8" standalone="no"?>
<svg width="24px" height="17px" viewBox="0 0 24 17" version="1.1" xmlns="http://www.w3.org/2000/svg" xmlns:xlink="http://www.w3.org/1999/xlink">
    <!-- Generator: Sketch 42 (36781) - http://www.bohemiancoding.com/sketch -->
    <title>Youtube</title>
    <desc>Created with Sketch.</desc>
    <defs></defs>
    <g id="BUSCADOR" stroke="none" stroke-width="1" fill="none" fill-rule="evenodd">
        <g id="assets" transform="translate(-564.000000, -570.000000)" fill="#2D2D2D">
            <path d="M573.522,581.627 L573.521,574.841 L580.005,578.245 L573.522,581.627 Z M587.76,573.665 C587.76,573.665 587.525,572 586.806,571.268 C585.893,570.306 584.87,570.301 584.401,570.244 C581.043,570 576.004,570 576.004,570 L575.995,570 C575.995,570 570.957,570 567.598,570.244 C567.128,570.301 566.106,570.306 565.193,571.268 C564.474,572 564.24,573.665 564.24,573.665 C564.24,573.665 564,575.619 564,577.573 L564,579.406 C564,581.36 564.24,583.315 564.24,583.315 C564.24,583.315 564.474,584.98 565.193,585.713 C566.106,586.674 567.305,586.644 567.839,586.745 C569.759,586.93 576,586.987 576,586.987 C576,586.987 581.043,586.98 584.401,586.735 C584.87,586.679 585.893,586.674 586.806,585.713 C587.525,584.98 587.76,583.315 587.76,583.315 C587.76,583.315 588,581.36 588,579.406 L588,577.573 C588,575.619 587.76,573.665 587.76,573.665 L587.76,573.665 Z" id="Youtube"></path>
        </g>
    </g>
</svg>